<svg width="1440" height="718" viewBox="0 0 1440 718" fill="none" xmlns="http://www.w3.org/2000/svg">
<g clip-path="url(#clip0_1_2)">
<path fill-rule="evenodd" clip-rule="evenodd" d="M311.215 311.714L310.45 340.58C310.411 342.075 309.167 343.254 307.673 343.215L278.806 342.45C277.312 342.411 276.132 341.167 276.172 339.673L276.936 310.806C276.976 309.312 278.219 308.132 279.714 308.172L308.58 308.936C310.075 308.976 311.254 310.219 311.215 311.714ZM305.331 316.801L304.822 335.997C304.796 336.991 303.969 337.775 302.975 337.749L283.779 337.241C282.786 337.214 282.001 336.387 282.028 335.393L282.536 316.198C282.562 315.204 283.389 314.419 284.383 314.446L303.579 314.954C304.573 314.98 305.357 315.807 305.331 316.801Z" fill="url(#paint0_linear_1_2)"/>
<path d="M402.335 421.314L391.728 410.707C391.337 410.317 390.704 410.317 390.314 410.707L379.707 421.314C379.317 421.704 379.317 422.337 379.707 422.728L390.314 433.335C390.704 433.725 391.337 433.725 391.728 433.335L402.335 422.728C402.725 422.337 402.725 421.704 402.335 421.314Z" fill="url(#paint1_linear_1_2)"/>
<path opacity="0.543" fill-rule="evenodd" clip-rule="evenodd" d="M1127.61 416.983L1125.97 444.357C1125.95 444.697 1125.84 445.026 1125.66 445.314C1125.47 445.601 1125.22 445.836 1124.92 445.998C1124.62 446.159 1124.28 446.241 1123.94 446.236C1123.6 446.231 1123.27 446.139 1122.97 445.968L1101.73 433.704C1101.44 433.534 1101.19 433.291 1101.01 432.998C1100.84 432.706 1100.74 432.373 1100.73 432.033C1100.72 431.692 1100.8 431.354 1100.96 431.052C1101.11 430.749 1101.35 430.492 1101.63 430.304L1124.51 415.194C1124.82 414.99 1125.19 414.876 1125.56 414.865C1125.93 414.854 1126.29 414.946 1126.62 415.132C1126.94 415.317 1127.2 415.589 1127.38 415.916C1127.55 416.243 1127.63 416.612 1127.61 416.983Z" stroke="url(#paint2_linear_1_2)" stroke-width="10"/>
<path opacity="0.543" fill-rule="evenodd" clip-rule="evenodd" d="M899.006 193.541L895.149 257.795C895.069 259.125 894.65 260.413 893.933 261.536C893.215 262.659 892.223 263.579 891.049 264.211C889.876 264.842 888.56 265.163 887.228 265.143C885.895 265.123 884.59 264.763 883.436 264.097L833.576 235.31C832.422 234.644 831.457 233.694 830.773 232.55C830.09 231.406 829.71 230.106 829.67 228.774C829.63 227.442 829.932 226.122 830.545 224.939C831.159 223.756 832.065 222.749 833.177 222.015L886.894 186.548C888.106 185.749 889.516 185.302 890.967 185.258C892.418 185.215 893.853 185.576 895.11 186.302C896.368 187.028 897.398 188.09 898.086 189.369C898.774 190.647 899.092 192.092 899.006 193.541Z" stroke="url(#paint3_linear_1_2)" stroke-width="10"/>
<path opacity="0.543" fill-rule="evenodd" clip-rule="evenodd" d="M1323.69 325.346L1268.61 382.196C1267.47 383.373 1266.05 384.239 1264.48 384.712C1262.91 385.185 1261.24 385.249 1259.64 384.897C1258.04 384.546 1256.56 383.792 1255.33 382.705C1254.11 381.619 1253.18 380.237 1252.63 378.691L1229.18 311.889C1228.64 310.342 1228.5 308.683 1228.78 307.068C1229.06 305.453 1229.75 303.937 1230.78 302.662C1231.81 301.387 1233.15 300.397 1234.67 299.785C1236.19 299.174 1237.84 298.961 1239.46 299.167L1317.99 309.119C1319.76 309.344 1321.44 310.057 1322.82 311.179C1324.21 312.301 1325.26 313.788 1325.85 315.472C1326.44 317.157 1326.56 318.973 1326.17 320.717C1325.79 322.461 1324.93 324.064 1323.69 325.346Z" stroke="url(#paint4_linear_1_2)" stroke-width="10"/>
<path opacity="0.543" fill-rule="evenodd" clip-rule="evenodd" d="M920.069 523.884L891.627 539.062C891.038 539.376 890.379 539.535 889.712 539.523C889.045 539.51 888.391 539.328 887.815 538.992C887.238 538.656 886.756 538.179 886.416 537.605C886.075 537.031 885.887 536.379 885.87 535.712L885.104 506.888C885.086 506.221 885.239 505.56 885.549 504.969C885.858 504.377 886.314 503.875 886.872 503.509C887.43 503.143 888.073 502.926 888.738 502.878C889.404 502.831 890.071 502.954 890.676 503.236L919.883 516.883C920.541 517.191 921.101 517.676 921.5 518.284C921.898 518.892 922.12 519.599 922.139 520.326C922.158 521.053 921.975 521.771 921.609 522.399C921.244 523.028 920.71 523.542 920.069 523.884Z" stroke="url(#paint5_linear_1_2)" stroke-width="10"/>
<path opacity="0.543" fill-rule="evenodd" clip-rule="evenodd" d="M961.899 295.648L1001.4 307.228C1002.22 307.468 1002.96 307.912 1003.56 308.52C1004.16 309.128 1004.59 309.878 1004.82 310.7C1005.04 311.521 1005.06 312.387 1004.85 313.215C1004.65 314.043 1004.24 314.805 1003.66 315.43L978.593 342.4C978.013 343.025 977.283 343.49 976.472 343.753C975.662 344.016 974.797 344.067 973.961 343.901C973.125 343.736 972.345 343.36 971.695 342.808C971.046 342.257 970.548 341.548 970.249 340.75L955.811 302.199C955.485 301.329 955.408 300.386 955.588 299.476C955.768 298.565 956.199 297.722 956.831 297.042C957.463 296.362 958.272 295.871 959.167 295.625C960.062 295.379 961.008 295.386 961.899 295.648Z" stroke="url(#paint6_linear_1_2)" stroke-width="10"/>
<path fill-rule="evenodd" clip-rule="evenodd" d="M0 462C38.952 369.377 95.85 336.046 170.692 362.008C282.957 400.951 322.832 453.614 383.282 362.008C398.954 338.257 393.147 287.498 354.003 285.482C314.859 283.466 344.752 239.166 412.147 230.475C479.542 221.784 394.051 160.413 342.752 142.577C289.477 124.055 357.911 75.295 363.196 56.674C371.776 26.442 250.711 26.442 0 56.674L0 462Z" fill="url(#paint7_linear_1_2)"/>
<path fill-rule="evenodd" clip-rule="evenodd" d="M1440 718C1352.5 716.975 1287.98 696.817 1246.44 657.526C1184.14 598.591 1184.65 471.139 1051.81 478.107C918.966 485.075 777.007 456.569 827.409 376.286C877.811 296.002 995.536 305.954 1023.67 175.094C1051.81 44.234 821.437 202.259 783.387 115.246C768.529 81.266 803.796 76.685 749.114 38.456C730.961 25.766 722.183 7.376 725.802 0.228C727.546 -3.217 733.726 1.806 740.172 0.228C760.638 -4.785 803.932 0.228 847.813 0.228H1440V718Z" fill="url(#paint8_linear_1_2)"/>
<path fill-rule="evenodd" clip-rule="evenodd" d="M388.172 512.464C402.542 508.783 407.017 528.197 433.224 528.197C459.432 528.197 482.737 509.861 515.169 526.029C547.604 542.199 573.846 591.182 540.617 581.737C520.99 576.159 496.716 559.149 463.287 591.532C429.856 623.912 409.853 562.08 384.809 571.569C359.763 581.06 373.684 516.174 388.172 512.464Z" fill="url(#paint9_linear_1_2)"/>
<path fill-rule="evenodd" clip-rule="evenodd" d="M134.814 423.387L170.541 459.115C172.391 460.965 172.391 463.964 170.541 465.814L134.814 501.541C132.964 503.391 129.965 503.391 128.115 501.541L92.3874 465.814C90.5375 463.964 90.5375 460.965 92.3874 459.115L128.115 423.387C129.965 421.538 132.964 421.538 134.814 423.387ZM134.187 436.983L157.946 460.741C159.176 461.971 159.176 463.966 157.946 465.196L134.187 488.955C132.957 490.185 130.963 490.185 129.733 488.955L105.974 465.196C104.744 463.966 104.744 461.971 105.974 460.741L129.733 436.983C130.963 435.753 132.957 435.753 134.187 436.983Z" fill="url(#paint10_linear_1_2)"/>
<path opacity="0.4" fill-rule="evenodd" clip-rule="evenodd" d="M158.95 161.766L181.664 228.559C182.84 232.017 180.99 235.774 177.531 236.95L110.738 259.664C107.28 260.84 103.523 258.99 102.347 255.531L79.6333 188.738C78.4573 185.28 80.3074 181.523 83.7657 180.347L150.559 157.633C154.017 156.457 157.774 158.307 158.95 161.766ZM149.779 178.409L164.883 222.826C165.665 225.126 164.435 227.624 162.135 228.406L117.718 243.511C115.419 244.293 112.92 243.063 112.138 240.763L97.0336 196.346C96.2515 194.046 97.4819 191.548 99.7817 190.766L144.198 175.661C146.498 174.879 148.997 176.11 149.779 178.409Z" fill="url(#paint11_linear_1_2)"/>
<path opacity="0.6" fill-rule="evenodd" clip-rule="evenodd" d="M302.345 522.727L335.426 535.212C337.139 535.859 338.003 537.771 337.357 539.484L324.871 572.565C324.224 574.277 322.312 575.142 320.599 574.495L287.519 562.009C285.806 561.363 284.941 559.45 285.588 557.738L298.074 524.657C298.72 522.944 300.633 522.08 302.345 522.727ZM305.864 531.577L327.863 539.88C329.002 540.31 329.576 541.582 329.146 542.721L320.843 564.719C320.414 565.858 319.142 566.432 318.003 566.003L296.005 557.7C294.866 557.27 294.291 555.998 294.721 554.859L303.024 532.861C303.454 531.722 304.725 531.147 305.864 531.577Z" fill="url(#paint12_linear_1_2)"/>
<path opacity="0.543" fill-rule="evenodd" clip-rule="evenodd" d="M1211.15 568.738L1132.33 575.98C1130.7 576.13 1129.06 575.86 1127.56 575.196C1126.06 574.533 1124.76 573.497 1123.77 572.188C1122.78 570.878 1122.15 569.339 1121.93 567.715C1121.7 566.092 1121.9 564.438 1122.49 562.911L1148.23 496.956C1148.83 495.43 1149.8 494.08 1151.07 493.037C1152.33 491.994 1153.84 491.291 1155.45 490.995C1157.06 490.699 1158.72 490.82 1160.28 491.347C1161.83 491.873 1163.22 492.788 1164.32 494.003L1217.41 552.717C1218.6 554.041 1219.41 555.673 1219.73 557.429C1220.05 559.185 1219.88 560.996 1219.23 562.659C1218.58 564.322 1217.48 565.772 1216.06 566.846C1214.63 567.919 1212.93 568.575 1211.15 568.738Z" stroke="url(#paint13_linear_1_2)" stroke-width="10"/>
<path opacity="0.543" fill-rule="evenodd" clip-rule="evenodd" d="M1268.5 138.79L1173.79 173.819C1171.83 174.544 1169.71 174.756 1167.65 174.435C1165.58 174.113 1163.63 173.269 1161.98 171.982C1160.33 170.696 1159.04 169.009 1158.23 167.083C1157.42 165.156 1157.11 163.054 1157.34 160.976L1167.2 71.1918C1167.43 69.1136 1168.19 67.1283 1169.4 65.4243C1170.61 63.7204 1172.24 62.3544 1174.12 61.456C1176.01 60.5576 1178.1 60.1568 1180.18 60.2914C1182.27 60.4261 1184.29 61.0918 1186.04 62.2253L1270.9 116.98C1272.81 118.215 1274.34 119.959 1275.32 122.016C1276.3 124.072 1276.69 126.361 1276.44 128.625C1276.19 130.889 1275.32 133.04 1273.91 134.835C1272.51 136.63 1270.64 137.999 1268.5 138.79Z" stroke="url(#paint14_linear_1_2)" stroke-width="10"/>
</g>
<defs>
<linearGradient id="paint0_linear_1_2" x1="-2720.25" y1="3360.65" x2="-864.547" y2="1424.57" gradientUnits="userSpaceOnUse">
<stop stop-color="white" stop-opacity="0"/>
<stop offset="1" stop-color="#387430"/>
</linearGradient>
<linearGradient id="paint1_linear_1_2" x1="1156.23" y1="-4221.01" x2="827.918" y2="2546.69" gradientUnits="userSpaceOnUse">
<stop stop-color="white" stop-opacity="0"/>
<stop offset="1" stop-color="#185A1C"/>
</linearGradient>
<linearGradient id="paint2_linear_1_2" x1="-12288" y1="3817.26" x2="2029.67" y2="2583.49" gradientUnits="userSpaceOnUse">
<stop stop-color="white" stop-opacity="0"/>
<stop offset="1" stop-color="#307E9C"/>
</linearGradient>
<linearGradient id="paint3_linear_1_2" x1="-10712.6" y1="6014.17" x2="3212.65" y2="5751.07" gradientUnits="userSpaceOnUse">
<stop stop-color="#408A4C" stop-opacity="0"/>
<stop offset="1" stop-color="#3299C0"/>
</linearGradient>
<linearGradient id="paint4_linear_1_2" x1="-14172" y1="-3548.03" x2="-970.702" y2="7363.52" gradientUnits="userSpaceOnUse">
<stop stop-color="#408A4C" stop-opacity="0"/>
<stop offset="1" stop-color="#3299C0"/>
</linearGradient>
<linearGradient id="paint5_linear_1_2" x1="-4605.33" y1="-2909.32" x2="-846.774" y2="2966.84" gradientUnits="userSpaceOnUse">
<stop stop-color="#408A4C" stop-opacity="0"/>
<stop offset="1" stop-color="#3299C0"/>
</linearGradient>
<linearGradient id="paint6_linear_1_2" x1="2932.12" y1="8365.37" x2="4756.77" y2="-352.963" gradientUnits="userSpaceOnUse">
<stop stop-color="#408A4C" stop-opacity="0"/>
<stop offset="1" stop-color="#3299C0"/>
</linearGradient>
<linearGradient id="paint7_linear_1_2" x1="-8683.19" y1="-2862.7" x2="50443.1" y2="44026.2" gradientUnits="userSpaceOnUse">
<stop stop-color="#47855B" stop-opacity="0"/>
<stop offset="1" stop-color="#2B4048"/>
</linearGradient>
<linearGradient id="paint8_linear_1_2" x1="86479.2" y1="-2.00016" x2="328.905" y2="60336.5" gradientUnits="userSpaceOnUse">
<stop stop-color="#23414B" stop-opacity="0"/>
<stop offset="1" stop-color="#2C393E"/>
</linearGradient>
<linearGradient id="paint9_linear_1_2" x1="-16098.8" y1="7422.76" x2="18266" y2="-11492.5" gradientUnits="userSpaceOnUse">
<stop stop-color="#42663D" stop-opacity="0"/>
<stop offset="1" stop-color="#1E1E1E"/>
</linearGradient>
<linearGradient id="paint10_linear_1_2" x1="355.55" y1="7943.22" x2="131.96" y2="3256.08" gradientUnits="userSpaceOnUse">
<stop stop-color="white" stop-opacity="0"/>
<stop offset="1" stop-color="#387430"/>
</linearGradient>
<linearGradient id="paint11_linear_1_2" x1="-4203.38" y1="9717.52" x2="-1592.05" y2="3708.32" gradientUnits="userSpaceOnUse">
<stop stop-color="white" stop-opacity="0"/>
<stop offset="1" stop-color="#387430"/>
</linearGradient>
<linearGradient id="paint12_linear_1_2" x1="2610.44" y1="5254.44" x2="1116.95" y2="2329.93" gradientUnits="userSpaceOnUse">
<stop stop-color="white" stop-opacity="0"/>
<stop offset="1" stop-color="#387430"/>
</linearGradient>
<linearGradient id="paint13_linear_1_2" x1="-8020.43" y1="-12465.7" x2="-5115.06" y2="4413.11" gradientUnits="userSpaceOnUse">
<stop stop-color="#408A4C" stop-opacity="0"/>
<stop offset="1" stop-color="#3299C0"/>
</linearGradient>
<linearGradient id="paint14_linear_1_2" x1="-14422.4" y1="-12862.7" x2="-5252.41" y2="6970.55" gradientUnits="userSpaceOnUse">
<stop stop-color="#408A4C" stop-opacity="0"/>
<stop offset="1" stop-color="#3299C0"/>
</linearGradient>
<clipPath id="clip0_1_2">
<rect width="1440" height="718" fill="white"/>
</clipPath>
</defs>
</svg>
