<svg width="381" height="338" viewBox="0 0 381 338" fill="none" xmlns="http://www.w3.org/2000/svg">
<path d="M33.8623 236.181C42.717 262.108 99.6904 283.518 124.157 290.982C149.79 294.322 204.549 301 218.53 301C236.007 301 257.561 284.501 281.446 264.465C305.33 244.43 372.906 276.84 379.897 212.021C386.887 147.202 358.925 118.327 344.944 91.8105C330.962 65.2935 310.573 53.5082 275.62 48.2048C240.667 42.9014 213.287 25.2234 201.054 14.0274C188.82 2.8313 157.945 -7.18622 118.332 6.95616C78.7185 21.0986 79.8837 35.2409 67.0676 48.2048C54.2515 61.1687 17.5509 50.5619 7.06502 67.6506C-3.42087 84.7393 -4.00342 117.149 17.5509 150.737C39.1052 184.325 22.7938 203.771 33.8623 236.181Z" fill="#A5C882" fill-opacity="0.25"/>
<path d="M33.8623 236.181C42.717 262.108 99.6904 283.518 124.157 290.982C149.79 294.322 204.549 301 218.53 301C236.007 301 257.561 284.501 281.446 264.465C305.33 244.43 372.906 276.84 379.897 212.021C386.887 147.202 358.925 118.327 344.944 91.8105C330.962 65.2935 310.573 53.5082 275.62 48.2048C240.667 42.9014 213.287 25.2234 201.054 14.0274C188.82 2.8313 157.945 -7.18622 118.332 6.95616C78.7185 21.0986 79.8837 35.2409 67.0676 48.2048C54.2515 61.1687 17.5509 50.5619 7.06502 67.6506C-3.42087 84.7393 -4.00342 117.149 17.5509 150.737C39.1052 184.325 22.7938 203.771 33.8623 236.181Z" fill="black" fill-opacity="0.2"/>
<g filter="url(#filter0_d_3_55)">
<path d="M81.0045 191.034C77.4015 198.689 66.5118 198.689 62.9087 191.034L46.1917 155.516C43.07 148.883 47.9092 141.257 55.2396 141.257H88.6737C96.0041 141.257 100.843 148.883 97.7216 155.516L81.0045 191.034Z" fill="#5AB1BB"/>
<path d="M64 114C64 111.239 66.2386 109 69 109H72C74.7614 109 77 111.239 77 114V147C77 149.761 74.7614 152 72 152H69C66.2386 152 64 149.761 64 147V114Z" fill="#5AB1BB"/>
<path d="M83 120C85.7614 120 88 122.239 88 125V128C88 130.761 85.7614 133 83 133H59C56.2386 133 54 130.761 54 128V125C54 122.239 56.2386 120 59 120H83Z" fill="#5AB1BB"/>
<path d="M71.3676 187L49.3296 194.817C47.4516 195.465 47.5773 198.128 49.5162 198.561C65.5979 202.147 76.7968 202.376 92.9795 198.545C94.8704 198.098 94.9945 195.516 93.1723 194.842L72.6706 187.248C72.237 187.088 71.8047 186.849 71.3676 187Z" fill="#5AB1BB"/>
<path d="M72.2584 221.981L46.1025 202.846C44.8227 201.81 45.2755 199.761 46.8776 199.381C65.1678 195.044 76.914 194.719 95.2299 199.34C96.8091 199.738 97.2375 201.761 95.9716 202.786L72.2584 221.981C71.5246 222.575 72.9921 222.575 72.2584 221.981Z" fill="#5AB1BB"/>
<path d="M71.3676 187V295.528L100.368 302H42.3676L56.4917 272.172C57.2867 270.492 57.844 268.711 58.1473 266.878L71.3676 187Z" fill="#5AB1BB"/>
<path d="M71.3676 187V295.528L42.3676 302H100.368L87.3637 272.422C86.5686 270.742 86.0114 268.961 85.7081 267.128L71.3676 187Z" fill="#5AB1BB"/>
<path d="M33 307C33 304.239 35.2386 302 38 302H103C105.761 302 108 304.239 108 307V319C108 321.761 105.761 324 103 324H38C35.2386 324 33 321.761 33 319V307Z" fill="#5AB1BB"/>
<path d="M22 324C22 320.686 24.6863 318 28 318H114C117.314 318 120 320.686 120 324C120 327.314 117.314 330 114 330H28C24.6863 330 22 327.314 22 324Z" fill="#5AB1BB"/>
</g>
<g filter="url(#filter1_d_3_55)">
<path d="M134 42C134 30.9543 142.954 22 154 22H331C342.046 22 351 30.9543 351 42V176C351 187.046 342.046 196 331 196H154C142.954 196 134 187.046 134 176V42Z" fill="#D9D9D9"/>
<path d="M117.5 167C128.3 161 136.333 148.5 139 143V186C136 181.5 128.2 173.5 121 177.5C113.8 181.5 104 179.167 100 177.5C101.333 176.5 106.7 173 117.5 167Z" fill="#D9D9D9"/>
</g>
<rect x="152" y="65" width="181" height="18" rx="9" fill="#BEBEBE"/>
<rect x="264" y="35" width="69" height="20" rx="10" fill="#BEBEBE"/>
<rect x="152" y="129" width="181" height="18" rx="9" fill="#BEBEBE"/>
<rect x="200" y="161" width="133" height="18" rx="9" fill="#BEBEBE"/>
<rect x="152" y="97" width="181" height="18" rx="9" fill="#BEBEBE"/>
<defs>
<filter id="filter0_d_3_55" x="18" y="109" width="106" height="229" filterUnits="userSpaceOnUse" color-interpolation-filters="sRGB">
<feFlood flood-opacity="0" result="BackgroundImageFix"/>
<feColorMatrix in="SourceAlpha" type="matrix" values="0 0 0 0 0 0 0 0 0 0 0 0 0 0 0 0 0 0 127 0" result="hardAlpha"/>
<feOffset dy="4"/>
<feGaussianBlur stdDeviation="2"/>
<feComposite in2="hardAlpha" operator="out"/>
<feColorMatrix type="matrix" values="0 0 0 0 0 0 0 0 0 0 0 0 0 0 0 0 0 0 0.25 0"/>
<feBlend mode="normal" in2="BackgroundImageFix" result="effect1_dropShadow_3_55"/>
<feBlend mode="normal" in="SourceGraphic" in2="effect1_dropShadow_3_55" result="shape"/>
</filter>
<filter id="filter1_d_3_55" x="96" y="22" width="259" height="182" filterUnits="userSpaceOnUse" color-interpolation-filters="sRGB">
<feFlood flood-opacity="0" result="BackgroundImageFix"/>
<feColorMatrix in="SourceAlpha" type="matrix" values="0 0 0 0 0 0 0 0 0 0 0 0 0 0 0 0 0 0 127 0" result="hardAlpha"/>
<feOffset dy="4"/>
<feGaussianBlur stdDeviation="2"/>
<feComposite in2="hardAlpha" operator="out"/>
<feColorMatrix type="matrix" values="0 0 0 0 0 0 0 0 0 0 0 0 0 0 0 0 0 0 0.25 0"/>
<feBlend mode="normal" in2="BackgroundImageFix" result="effect1_dropShadow_3_55"/>
<feBlend mode="normal" in="SourceGraphic" in2="effect1_dropShadow_3_55" result="shape"/>
</filter>
</defs>
</svg>
