<svg width="289" height="165" viewBox="0 0 289 165" fill="none" xmlns="http://www.w3.org/2000/svg">
<g filter="url(#filter0_f_4_29)">
<path d="M232.906 42.2459C233.339 41.2297 234.514 40.7568 235.53 41.1897L245.65 45.5008C246.666 45.9337 247.139 47.1085 246.706 48.1247L214.961 122.645C214.528 123.661 213.353 124.134 212.337 123.701L202.217 119.39C201.2 118.957 200.728 117.782 201.161 116.766L232.906 42.2459Z" fill="#0EF893" fill-opacity="0.5"/>
<path d="M160.906 48.2459C161.339 47.2297 162.514 46.7568 163.53 47.1897L173.65 51.5008C174.666 51.9337 175.139 53.1085 174.706 54.1247L143.252 127.961C142.819 128.977 141.644 129.45 140.628 129.017L130.508 124.706C129.492 124.273 129.019 123.098 129.452 122.082L160.906 48.2459Z" fill="#0EF893" fill-opacity="0.5"/>
<path d="M265.375 13.8525C265.827 13.7142 266.314 13.7408 266.749 13.9276L274.372 17.2026C276.083 17.9379 275.949 20.4076 274.168 20.9527L176.92 50.7113C176.483 50.8451 176.013 50.825 175.588 50.6544L167.631 47.4548C165.881 46.7511 165.988 44.2381 167.792 43.6866L265.375 13.8525Z" fill="#0EF893" fill-opacity="0.5"/>
<path d="M226.375 14.8525C226.827 14.7142 227.314 14.7408 227.749 14.9276L235.372 18.2026C237.083 18.9379 236.949 21.4076 235.168 21.9527L137.92 51.7113C137.483 51.8451 137.013 51.825 136.588 51.6544L128.631 48.4548C126.881 47.7511 126.988 45.2381 128.792 44.6866L226.375 14.8525Z" fill="#0EF893" fill-opacity="0.5"/>
<path d="M253.734 10.0922C254.131 9.96729 254.557 9.96936 254.953 10.0981L258.232 11.1647C260.09 11.7691 260.068 14.4055 258.2 14.9787L243.561 19.471C243.115 19.6078 242.636 19.5845 242.205 19.4053L239.489 18.2741C237.766 17.5568 237.878 15.0799 239.658 14.52L253.734 10.0922Z" fill="#0EF893" fill-opacity="0.5"/>
<path d="M121.906 49.2459C122.339 48.2297 123.514 47.7568 124.53 48.1897L134.65 52.5008C135.666 52.9337 136.139 54.1085 135.706 55.1247L103.961 129.645C103.528 130.661 102.353 131.134 101.337 130.701L91.2167 126.39C90.2005 125.957 89.7276 124.782 90.1605 123.766L121.906 49.2459Z" fill="#0EF893" fill-opacity="0.5"/>
<path d="M20.6456 99.2459C21.0786 98.2297 22.2533 97.7568 23.2695 98.1897L33.3895 102.501C34.4057 102.934 34.8785 104.108 34.4456 105.125L23.9605 129.738C23.5276 130.754 22.3529 131.227 21.3367 130.794L11.2167 126.483C10.2005 126.05 9.72761 124.875 10.1605 123.859L20.6456 99.2459Z" fill="#0EF893" fill-opacity="0.5"/>
<path d="M180.309 84.6861C180.742 83.6699 181.917 83.1971 182.933 83.63L193.053 87.9411C194.069 88.374 194.542 89.5488 194.109 90.565L178.04 128.285C177.607 129.301 176.433 129.774 175.416 129.341L165.296 125.03C164.28 124.597 163.807 123.422 164.24 122.406L180.309 84.6861Z" fill="#0EF893" fill-opacity="0.5"/>
<path d="M212.377 109.406C213.481 109.406 214.377 110.301 214.377 111.406V122.406C214.377 123.51 213.481 124.406 212.377 124.406H172.377C171.272 124.406 170.377 123.51 170.377 122.406V111.406C170.377 110.301 171.272 109.406 172.377 109.406H212.377Z" fill="#0EF893" fill-opacity="0.5"/>
<path d="M175.377 114.406C176.481 114.406 177.377 115.301 177.377 116.406V127.406C177.377 128.51 176.481 129.406 175.377 129.406H141.377C140.272 129.406 139.377 128.51 139.377 127.406V116.406C139.377 115.301 140.272 114.406 141.377 114.406H175.377Z" fill="#0EF893" fill-opacity="0.5"/>
<path d="M137.377 109.406C138.481 109.406 139.377 110.301 139.377 111.406V122.406C139.377 123.51 138.481 124.406 137.377 124.406H99.3767C98.2721 124.406 97.3767 123.51 97.3767 122.406V111.406C97.3767 110.301 98.2721 109.406 99.3767 109.406H137.377Z" fill="#0EF893" fill-opacity="0.5"/>
<path d="M101.377 116.406C102.481 116.406 103.377 117.301 103.377 118.406V129.406C103.377 130.51 102.481 131.406 101.377 131.406H23.3767C22.2721 131.406 21.3767 130.51 21.3767 129.406V118.406C21.3767 117.301 22.2721 116.406 23.3767 116.406H101.377Z" fill="#0EF893" fill-opacity="0.5"/>
<path d="M67.2829 102.317C68.3874 102.317 69.2829 103.212 69.2829 104.317V105.317C69.2829 106.421 68.3874 107.317 67.2829 107.317H51.2829C50.1783 107.317 49.2829 106.421 49.2829 105.317V104.317C49.2829 103.212 50.1783 102.317 51.2829 102.317H67.2829Z" fill="#0EF893" fill-opacity="0.5"/>
<path d="M69.4191 102.999C70.0621 103.897 69.9534 105.261 69.1763 106.046L68.9442 106.281C68.1671 107.066 67.0159 106.974 66.373 106.076L60.3773 97.7006C59.7343 96.8024 59.8431 95.438 60.6201 94.653L60.8522 94.4185C61.6293 93.6336 62.7805 93.7253 63.4234 94.6234L69.4191 102.999Z" fill="#0EF893" fill-opacity="0.5"/>
<path d="M69.4191 88.7772C70.399 88.2674 71.5031 88.6944 71.8852 89.7308L72.1056 90.3288C72.4876 91.3652 72.0029 92.6186 71.023 93.1283L62.566 97.5274C61.586 98.0371 60.482 97.6101 60.0999 96.5737L59.8795 95.9757C59.4974 94.9393 59.9821 93.686 60.9621 93.1762L69.4191 88.7772Z" fill="#0EF893" fill-opacity="0.5"/>
<path d="M148.39 136.448C149.152 135.639 150.429 135.607 151.231 136.377L159.29 144.118C160.081 144.878 160.112 146.133 159.36 146.932L153.705 152.936C152.943 153.745 151.666 153.777 150.864 153.007L142.805 145.266C142.014 144.506 141.982 143.251 142.735 142.452L148.39 136.448Z" fill="#0EF893" fill-opacity="0.5"/>
<path d="M160.048 135.876C160.811 135.066 162.087 135.034 162.889 135.805L170.948 143.546C171.739 144.306 171.771 145.561 171.019 146.359L165.364 152.363C164.601 153.173 163.324 153.205 162.522 152.435L154.463 144.694C153.672 143.934 153.641 142.679 154.393 141.88L160.048 135.876Z" fill="#0EF893" fill-opacity="0.5"/>
</g>
<g filter="url(#filter1_f_4_29)">
<path d="M235.906 43.2459C236.339 42.2297 237.514 41.7568 238.53 42.1897L248.65 46.5008C249.666 46.9337 250.139 48.1085 249.706 49.1247L217.961 123.645C217.528 124.661 216.353 125.134 215.337 124.701L205.217 120.39C204.2 119.957 203.728 118.782 204.161 117.766L235.906 43.2459Z" fill="#5AB1BB" fill-opacity="0.5"/>
<path d="M163.906 49.2459C164.339 48.2297 165.514 47.7568 166.53 48.1897L176.65 52.5008C177.666 52.9337 178.139 54.1085 177.706 55.1247L146.252 128.961C145.819 129.977 144.644 130.45 143.628 130.017L133.508 125.706C132.492 125.273 132.019 124.098 132.452 123.082L163.906 49.2459Z" fill="#5AB1BB" fill-opacity="0.5"/>
<path d="M268.375 14.8525C268.827 14.7142 269.314 14.7408 269.749 14.9276L277.372 18.2026C279.083 18.9379 278.949 21.4076 277.168 21.9527L179.92 51.7113C179.483 51.8451 179.013 51.825 178.588 51.6544L170.631 48.4548C168.881 47.7511 168.988 45.2381 170.792 44.6866L268.375 14.8525Z" fill="#5AB1BB" fill-opacity="0.5"/>
<path d="M229.375 15.8525C229.827 15.7142 230.314 15.7408 230.749 15.9276L238.372 19.2026C240.083 19.9379 239.949 22.4076 238.168 22.9527L140.92 52.7113C140.483 52.8451 140.013 52.825 139.588 52.6544L131.631 49.4548C129.881 48.7511 129.988 46.2381 131.792 45.6866L229.375 15.8525Z" fill="#5AB1BB" fill-opacity="0.5"/>
<path d="M256.734 11.0922C257.131 10.9673 257.557 10.9694 257.953 11.0981L261.232 12.1647C263.09 12.7691 263.068 15.4055 261.2 15.9787L246.561 20.471C246.115 20.6078 245.636 20.5845 245.205 20.4053L242.489 19.2741C240.766 18.5568 240.878 16.0799 242.658 15.52L256.734 11.0922Z" fill="#5AB1BB" fill-opacity="0.5"/>
<path d="M124.906 50.2459C125.339 49.2297 126.514 48.7568 127.53 49.1897L137.65 53.5008C138.666 53.9337 139.139 55.1085 138.706 56.1247L106.961 130.645C106.528 131.661 105.353 132.134 104.337 131.701L94.2167 127.39C93.2005 126.957 92.7276 125.782 93.1605 124.766L124.906 50.2459Z" fill="#5AB1BB" fill-opacity="0.5"/>
<path d="M23.6456 100.246C24.0786 99.2297 25.2533 98.7568 26.2695 99.1897L36.3895 103.501C37.4057 103.934 37.8785 105.108 37.4456 106.125L26.9605 130.738C26.5276 131.754 25.3529 132.227 24.3367 131.794L14.2167 127.483C13.2005 127.05 12.7276 125.875 13.1605 124.859L23.6456 100.246Z" fill="#5AB1BB" fill-opacity="0.5"/>
<path d="M183.309 85.6861C183.742 84.6699 184.917 84.1971 185.933 84.63L196.053 88.9411C197.069 89.374 197.542 90.5488 197.109 91.565L181.04 129.285C180.607 130.301 179.433 130.774 178.416 130.341L168.296 126.03C167.28 125.597 166.807 124.422 167.24 123.406L183.309 85.6861Z" fill="#5AB1BB" fill-opacity="0.5"/>
<path d="M215.377 110.406C216.481 110.406 217.377 111.301 217.377 112.406V123.406C217.377 124.51 216.481 125.406 215.377 125.406H175.377C174.272 125.406 173.377 124.51 173.377 123.406V112.406C173.377 111.301 174.272 110.406 175.377 110.406H215.377Z" fill="#5AB1BB" fill-opacity="0.5"/>
<path d="M178.377 115.406C179.481 115.406 180.377 116.301 180.377 117.406V128.406C180.377 129.51 179.481 130.406 178.377 130.406H144.377C143.272 130.406 142.377 129.51 142.377 128.406V117.406C142.377 116.301 143.272 115.406 144.377 115.406H178.377Z" fill="#5AB1BB" fill-opacity="0.5"/>
<path d="M140.377 110.406C141.481 110.406 142.377 111.301 142.377 112.406V123.406C142.377 124.51 141.481 125.406 140.377 125.406H102.377C101.272 125.406 100.377 124.51 100.377 123.406V112.406C100.377 111.301 101.272 110.406 102.377 110.406H140.377Z" fill="#5AB1BB" fill-opacity="0.5"/>
<path d="M104.377 117.406C105.481 117.406 106.377 118.301 106.377 119.406V130.406C106.377 131.51 105.481 132.406 104.377 132.406H26.3767C25.2721 132.406 24.3767 131.51 24.3767 130.406V119.406C24.3767 118.301 25.2721 117.406 26.3767 117.406H104.377Z" fill="#5AB1BB" fill-opacity="0.5"/>
<path d="M69.3767 101.406C70.4812 101.406 71.3767 102.301 71.3767 103.406V104.406C71.3767 105.51 70.4812 106.406 69.3767 106.406H53.3767C52.2721 106.406 51.3767 105.51 51.3767 104.406V103.406C51.3767 102.301 52.2721 101.406 53.3767 101.406H69.3767Z" fill="#5AB1BB" fill-opacity="0.5"/>
<path d="M71.1602 102.5C71.8032 103.398 71.4112 105.176 70.6341 105.961C69.8571 106.746 68.5 105.781 68 105.5L63.6441 99.0733C63.0012 98.1752 63.1099 96.8107 63.887 96.0257V94.5C64.664 93.715 66.0473 95.098 66.6903 95.9962L71.1602 102.5Z" fill="#5AB1BB" fill-opacity="0.5"/>
<path d="M71.215 87.9389C72.1949 87.4292 73.299 87.8561 73.6811 88.8925L73.9015 89.4905C74.2835 90.5269 73.7989 91.7803 72.8189 92.29L63.887 96.0257C62.907 96.5354 62.2779 96.7719 61.8958 95.7355L61.6754 95.1375C61.2934 94.1011 61.778 92.8477 62.758 92.338L71.215 87.9389Z" fill="#5AB1BB" fill-opacity="0.5"/>
<path d="M151.39 137.448C152.152 136.639 153.429 136.607 154.231 137.377L162.29 145.118C163.081 145.878 163.112 147.133 162.36 147.932L156.705 153.936C155.943 154.745 154.666 154.777 153.864 154.007L145.805 146.266C145.014 145.506 144.982 144.251 145.735 143.452L151.39 137.448Z" fill="#5AB1BB" fill-opacity="0.5"/>
<path d="M163.048 136.876C163.811 136.066 165.087 136.034 165.889 136.805L173.948 144.546C174.739 145.306 174.771 146.561 174.019 147.359L168.364 153.363C167.601 154.173 166.324 154.205 165.522 153.435L157.463 145.694C156.672 144.934 156.641 143.679 157.393 142.88L163.048 136.876Z" fill="#5AB1BB" fill-opacity="0.5"/>
</g>
<g filter="url(#filter2_f_4_29)">
<path d="M235.906 43.2459C236.339 42.2297 237.514 41.7568 238.53 42.1897L248.65 46.5008C249.666 46.9337 250.139 48.1085 249.706 49.1247L217.961 123.645C217.528 124.661 216.353 125.134 215.337 124.701L205.217 120.39C204.2 119.957 203.728 118.782 204.161 117.766L235.906 43.2459Z" fill="#5AB1BB"/>
<path d="M163.906 49.2459C164.339 48.2297 165.514 47.7568 166.53 48.1897L176.65 52.5008C177.666 52.9337 178.139 54.1085 177.706 55.1247L146.252 128.961C145.819 129.977 144.644 130.45 143.628 130.017L133.508 125.706C132.492 125.273 132.019 124.098 132.452 123.082L163.906 49.2459Z" fill="#5AB1BB"/>
<path d="M268.375 14.8525C268.827 14.7142 269.314 14.7408 269.749 14.9276L277.372 18.2026C279.083 18.9379 278.949 21.4076 277.168 21.9527L179.92 51.7113C179.483 51.8451 179.013 51.825 178.588 51.6544L170.631 48.4548C168.881 47.7511 168.988 45.2381 170.792 44.6866L268.375 14.8525Z" fill="#5AB1BB"/>
<path d="M229.375 15.8525C229.827 15.7142 230.314 15.7408 230.749 15.9276L238.372 19.2026C240.083 19.9379 239.949 22.4076 238.168 22.9527L140.92 52.7113C140.483 52.8451 140.013 52.825 139.588 52.6544L131.631 49.4548C129.881 48.7511 129.988 46.2381 131.792 45.6866L229.375 15.8525Z" fill="#5AB1BB"/>
<path d="M256.734 11.0922C257.131 10.9673 257.557 10.9694 257.953 11.0981L261.232 12.1647C263.09 12.7691 263.068 15.4055 261.2 15.9787L246.561 20.471C246.115 20.6078 245.636 20.5845 245.205 20.4053L242.489 19.2741C240.766 18.5568 240.878 16.0799 242.658 15.52L256.734 11.0922Z" fill="#5AB1BB"/>
<path d="M124.906 50.2459C125.339 49.2297 126.514 48.7568 127.53 49.1897L137.65 53.5008C138.666 53.9337 139.139 55.1085 138.706 56.1247L106.961 130.645C106.528 131.661 105.353 132.134 104.337 131.701L94.2167 127.39C93.2005 126.957 92.7276 125.782 93.1605 124.766L124.906 50.2459Z" fill="#5AB1BB"/>
<path d="M23.6456 100.246C24.0786 99.2297 25.2533 98.7568 26.2695 99.1897L36.3895 103.501C37.4057 103.934 37.8785 105.108 37.4456 106.125L26.9605 130.738C26.5276 131.754 25.3529 132.227 24.3367 131.794L14.2167 127.483C13.2005 127.05 12.7276 125.875 13.1605 124.859L23.6456 100.246Z" fill="#5AB1BB"/>
<path d="M183.309 85.6861C183.742 84.6699 184.917 84.1971 185.933 84.63L196.053 88.9411C197.069 89.374 197.542 90.5488 197.109 91.565L181.04 129.285C180.607 130.301 179.433 130.774 178.416 130.341L168.296 126.03C167.28 125.597 166.807 124.422 167.24 123.406L183.309 85.6861Z" fill="#5AB1BB"/>
<path d="M215.377 110.406C216.481 110.406 217.377 111.301 217.377 112.406V123.406C217.377 124.51 216.481 125.406 215.377 125.406H175.377C174.272 125.406 173.377 124.51 173.377 123.406V112.406C173.377 111.301 174.272 110.406 175.377 110.406H215.377Z" fill="#5AB1BB"/>
<path d="M178.377 115.406C179.481 115.406 180.377 116.301 180.377 117.406V128.406C180.377 129.51 179.481 130.406 178.377 130.406H144.377C143.272 130.406 142.377 129.51 142.377 128.406V117.406C142.377 116.301 143.272 115.406 144.377 115.406H178.377Z" fill="#5AB1BB"/>
<path d="M140.377 110.406C141.481 110.406 142.377 111.301 142.377 112.406V123.406C142.377 124.51 141.481 125.406 140.377 125.406H102.377C101.272 125.406 100.377 124.51 100.377 123.406V112.406C100.377 111.301 101.272 110.406 102.377 110.406H140.377Z" fill="#5AB1BB"/>
<path d="M104.377 117.406C105.481 117.406 106.377 118.301 106.377 119.406V130.406C106.377 131.51 105.481 132.406 104.377 132.406H26.3767C25.2721 132.406 24.3767 131.51 24.3767 130.406V119.406C24.3767 118.301 25.2721 117.406 26.3767 117.406H104.377Z" fill="#5AB1BB"/>
<path d="M69.3767 101.406C70.4812 101.406 71.3767 102.301 71.3767 103.406V104.406C71.3767 105.51 70.4812 106.406 69.3767 106.406H53.3767C52.2721 106.406 51.3767 105.51 51.3767 104.406V103.406C51.3767 102.301 52.2721 101.406 53.3767 101.406H69.3767Z" fill="#5AB1BB"/>
<path d="M71.1602 102.5C71.8032 103.398 71.4112 105.176 70.6341 105.961C69.8571 106.746 68.5 105.781 68 105.5L63.6441 99.0733C63.0012 98.1752 63.1099 96.8107 63.887 96.0257V94.5C64.664 93.715 66.0473 95.098 66.6903 95.9962L71.1602 102.5Z" fill="#5AB1BB"/>
<path d="M71.215 87.9389C72.1949 87.4292 73.299 87.8561 73.6811 88.8925L73.9015 89.4905C74.2835 90.5269 73.7989 91.7803 72.8189 92.29L63.887 96.0257C62.907 96.5354 62.2779 96.7719 61.8958 95.7355L61.6754 95.1375C61.2934 94.1011 61.778 92.8477 62.758 92.338L71.215 87.9389Z" fill="#5AB1BB"/>
<path d="M151.39 137.448C152.152 136.639 153.429 136.607 154.231 137.377L162.29 145.118C163.081 145.878 163.112 147.133 162.36 147.932L156.705 153.936C155.943 154.745 154.666 154.777 153.864 154.007L145.805 146.266C145.014 145.506 144.982 144.251 145.735 143.452L151.39 137.448Z" fill="#5AB1BB"/>
<path d="M163.048 136.876C163.811 136.066 165.087 136.034 165.889 136.805L173.948 144.546C174.739 145.306 174.771 146.561 174.019 147.359L168.364 153.363C167.601 154.173 166.324 154.205 165.522 153.435L157.463 145.694C156.672 144.934 156.641 143.679 157.393 142.88L163.048 136.876Z" fill="#5AB1BB"/>
</g>
<g filter="url(#filter3_f_4_29)">
<path d="M232.906 40.2459C233.339 39.2297 234.514 38.7568 235.53 39.1897L245.65 43.5008C246.666 43.9337 247.139 45.1085 246.706 46.1247L214.961 120.645C214.528 121.661 213.353 122.134 212.337 121.701L202.217 117.39C201.2 116.957 200.728 115.782 201.161 114.766L232.906 40.2459Z" fill="#839E68"/>
<path d="M160.906 46.2459C161.339 45.2297 162.514 44.7568 163.53 45.1897L173.65 49.5008C174.666 49.9337 175.139 51.1085 174.706 52.1247L143.252 125.961C142.819 126.977 141.644 127.45 140.628 127.017L130.508 122.706C129.492 122.273 129.019 121.098 129.452 120.082L160.906 46.2459Z" fill="#839E68"/>
<path d="M265.375 11.8525C265.827 11.7142 266.314 11.7408 266.749 11.9276L274.372 15.2026C276.083 15.9379 275.949 18.4076 274.168 18.9527L176.92 48.7113C176.483 48.8451 176.013 48.825 175.588 48.6544L167.631 45.4548C165.881 44.7511 165.988 42.2381 167.792 41.6866L265.375 11.8525Z" fill="#839E68"/>
<path d="M226.375 12.8525C226.827 12.7142 227.314 12.7408 227.749 12.9276L235.372 16.2026C237.083 16.9379 236.949 19.4076 235.168 19.9527L137.92 49.7113C137.483 49.8451 137.013 49.825 136.588 49.6544L128.631 46.4548C126.881 45.7511 126.988 43.2381 128.792 42.6866L226.375 12.8525Z" fill="#839E68"/>
<path d="M253.734 8.09216C254.131 7.96729 254.557 7.96936 254.953 8.09807L258.232 9.16475C260.09 9.76909 260.068 12.4055 258.2 12.9787L243.561 17.471C243.115 17.6078 242.636 17.5845 242.205 17.4053L239.489 16.2741C237.766 15.5568 237.878 13.0799 239.658 12.52L253.734 8.09216Z" fill="#839E68"/>
<path d="M121.906 47.2459C122.339 46.2297 123.514 45.7568 124.53 46.1897L134.65 50.5008C135.666 50.9337 136.139 52.1085 135.706 53.1247L103.961 127.645C103.528 128.661 102.353 129.134 101.337 128.701L91.2167 124.39C90.2005 123.957 89.7276 122.782 90.1605 121.766L121.906 47.2459Z" fill="#839E68"/>
<path d="M20.6456 97.2459C21.0786 96.2297 22.2533 95.7568 23.2695 96.1897L33.3895 100.501C34.4057 100.934 34.8785 102.108 34.4456 103.125L23.9605 127.738C23.5276 128.754 22.3529 129.227 21.3367 128.794L11.2167 124.483C10.2005 124.05 9.72761 122.875 10.1605 121.859L20.6456 97.2459Z" fill="#839E68"/>
<path d="M180.309 82.6861C180.742 81.6699 181.917 81.1971 182.933 81.63L193.053 85.9411C194.069 86.374 194.542 87.5488 194.109 88.565L178.04 126.285C177.607 127.301 176.433 127.774 175.416 127.341L165.296 123.03C164.28 122.597 163.807 121.422 164.24 120.406L180.309 82.6861Z" fill="#839E68"/>
<path d="M212.377 107.406C213.481 107.406 214.377 108.301 214.377 109.406V120.406C214.377 121.51 213.481 122.406 212.377 122.406H172.377C171.272 122.406 170.377 121.51 170.377 120.406V109.406C170.377 108.301 171.272 107.406 172.377 107.406H212.377Z" fill="#839E68"/>
<path d="M175.377 112.406C176.481 112.406 177.377 113.301 177.377 114.406V125.406C177.377 126.51 176.481 127.406 175.377 127.406H141.377C140.272 127.406 139.377 126.51 139.377 125.406V114.406C139.377 113.301 140.272 112.406 141.377 112.406H175.377Z" fill="#839E68"/>
<path d="M137.377 107.406C138.481 107.406 139.377 108.301 139.377 109.406V120.406C139.377 121.51 138.481 122.406 137.377 122.406H99.3767C98.2721 122.406 97.3767 121.51 97.3767 120.406V109.406C97.3767 108.301 98.2721 107.406 99.3767 107.406H137.377Z" fill="#839E68"/>
<path d="M101.377 114.406C102.481 114.406 103.377 115.301 103.377 116.406V127.406C103.377 128.51 102.481 129.406 101.377 129.406H23.3767C22.2721 129.406 21.3767 128.51 21.3767 127.406V116.406C21.3767 115.301 22.2721 114.406 23.3767 114.406H101.377Z" fill="#839E68"/>
<path d="M67.2829 100.317C68.3874 100.317 69.2829 101.212 69.2829 102.317V103.317C69.2829 104.421 68.3874 105.317 67.2829 105.317H51.2829C50.1783 105.317 49.2829 104.421 49.2829 103.317V102.317C49.2829 101.212 50.1783 100.317 51.2829 100.317H67.2829Z" fill="#839E68"/>
<path d="M69.4191 100.999C70.0621 101.897 69.9534 103.261 69.1763 104.046L68.9442 104.281C68.1671 105.066 67.0159 104.974 66.373 104.076L60.3773 95.7006C59.7343 94.8024 59.8431 93.438 60.6201 92.653L60.8522 92.4185C61.6293 91.6336 62.7805 91.7253 63.4234 92.6234L69.4191 100.999Z" fill="#839E68"/>
<path d="M69.4191 86.7772C70.399 86.2674 71.5031 86.6944 71.8852 87.7308L72.1056 88.3288C72.4876 89.3652 72.0029 90.6186 71.023 91.1283L62.566 95.5274C61.586 96.0371 60.482 95.6101 60.0999 94.5737L59.8795 93.9757C59.4974 92.9393 59.9821 91.686 60.9621 91.1762L69.4191 86.7772Z" fill="#839E68"/>
<path d="M148.39 134.448C149.152 133.639 150.429 133.607 151.231 134.377L159.29 142.118C160.081 142.878 160.112 144.133 159.36 144.932L153.705 150.936C152.943 151.745 151.666 151.777 150.864 151.007L142.805 143.266C142.014 142.506 141.982 141.251 142.735 140.452L148.39 134.448Z" fill="#839E68"/>
<path d="M160.048 133.876C160.811 133.066 162.087 133.034 162.889 133.805L170.948 141.546C171.739 142.306 171.771 143.561 171.019 144.359L165.364 150.363C164.601 151.173 163.324 151.205 162.522 150.435L154.463 142.694C153.672 141.934 153.641 140.679 154.393 139.88L160.048 133.876Z" fill="#839E68"/>
</g>
<path d="M229.529 37.84C229.962 36.8238 231.137 36.3509 232.153 36.7838L242.273 41.095C243.29 41.5279 243.762 42.7026 243.329 43.7188L211.584 118.239C211.151 119.255 209.976 119.728 208.96 119.295L198.84 114.984C197.824 114.551 197.351 113.376 197.784 112.36L229.529 37.84Z" fill="#D9D9D9"/>
<path d="M157.529 43.84C157.962 42.8238 159.137 42.3509 160.153 42.7839L170.273 47.095C171.29 47.5279 171.762 48.7026 171.329 49.7188L139.875 123.555C139.442 124.571 138.267 125.044 137.251 124.611L127.131 120.3C126.115 119.867 125.642 118.692 126.075 117.676L157.529 43.84Z" fill="#D9D9D9"/>
<path d="M261.998 9.44667C262.451 9.30832 262.938 9.3349 263.372 9.5217L270.995 12.7968C272.707 13.532 272.572 16.0018 270.791 16.5468L173.543 46.3054C173.106 46.4392 172.636 46.4192 172.212 46.2486L164.254 43.0489C162.504 42.3452 162.612 39.8322 164.415 39.2807L261.998 9.44667Z" fill="#D9D9D9"/>
<path d="M222.998 10.4467C223.451 10.3083 223.938 10.3349 224.372 10.5217L231.995 13.7968C233.707 14.532 233.572 17.0018 231.791 17.5468L134.543 47.3054C134.106 47.4392 133.636 47.4192 133.212 47.2486L125.254 44.0489C123.504 43.3452 123.612 40.8322 125.415 40.2807L222.998 10.4467Z" fill="#D9D9D9"/>
<path d="M250.357 5.68631C250.754 5.56144 251.18 5.56351 251.576 5.69222L254.856 6.75889C256.714 7.36323 256.692 9.99962 254.824 10.5728L240.184 15.0651C239.739 15.2019 239.259 15.1787 238.829 14.9994L236.112 13.8682C234.39 13.1509 234.501 10.674 236.281 10.1141L250.357 5.68631Z" fill="#D9D9D9"/>
<path d="M118.529 44.84C118.962 43.8238 120.137 43.3509 121.153 43.7839L131.273 48.095C132.29 48.5279 132.762 49.7026 132.329 50.7188L100.584 125.239C100.151 126.255 98.9762 126.728 97.96 126.295L87.84 121.984C86.8238 121.551 86.3509 120.376 86.7838 119.36L118.529 44.84Z" fill="#D9D9D9"/>
<path d="M17.2689 94.84C17.7018 93.8238 18.8766 93.3509 19.8928 93.7839L30.0128 98.095C31.029 98.5279 31.5018 99.7026 31.0689 100.719L20.5838 125.332C20.1509 126.348 18.9761 126.821 17.9599 126.388L7.83996 122.077C6.82376 121.644 6.3509 120.469 6.78381 119.453L17.2689 94.84Z" fill="#D9D9D9"/>
<path d="M176.932 80.2803C177.365 79.2641 178.54 78.7912 179.556 79.2241L189.676 83.5353C190.692 83.9682 191.165 85.1429 190.732 86.1591L174.663 123.879C174.231 124.895 173.056 125.368 172.04 124.935L161.92 120.624C160.903 120.191 160.431 119.016 160.864 118L176.932 80.2803Z" fill="#D9D9D9"/>
<path d="M209 105C210.105 105 211 105.895 211 107V118C211 119.105 210.105 120 209 120H169C167.895 120 167 119.105 167 118V107C167 105.895 167.895 105 169 105H209Z" fill="#D9D9D9"/>
<path d="M172 110C173.105 110 174 110.895 174 112V123C174 124.105 173.105 125 172 125H138C136.895 125 136 124.105 136 123V112C136 110.895 136.895 110 138 110H172Z" fill="#D9D9D9"/>
<path d="M134 105C135.105 105 136 105.895 136 107V118C136 119.105 135.105 120 134 120H96C94.8954 120 94 119.105 94 118V107C94 105.895 94.8954 105 96 105H134Z" fill="#D9D9D9"/>
<path d="M98 112C99.1045 112 100 112.895 100 114V125C100 126.105 99.1045 127 98 127H20C18.8954 127 18 126.105 18 125V114C18 112.895 18.8954 112 20 112H98Z" fill="#D9D9D9"/>
<path d="M65 99C66.1045 99 67 99.8954 67 101V102C67 103.105 66.1045 104 65 104H49C47.8954 104 47 103.105 47 102V101C47 99.8954 47.8954 99 49 99H65Z" fill="#D9D9D9"/>
<path d="M66.7841 99.6289C67.4271 100.527 67.3184 101.892 66.5413 102.677L66.3092 102.911C65.5322 103.696 64.381 103.604 63.738 102.706L57.7423 94.3309C57.0994 93.4327 57.2081 92.0682 57.9852 91.2832L58.2172 91.0488C58.9943 90.2638 60.1455 90.3555 60.7885 91.2537L66.7841 99.6289Z" fill="#D9D9D9"/>
<path d="M67.6463 85.9229C68.6262 85.4132 69.7303 85.8402 70.1124 86.8766L70.3328 87.4746C70.7148 88.511 70.2301 89.7643 69.2502 90.2741L60.7932 94.6731C59.8132 95.1829 58.7092 94.7559 58.3271 93.7195L58.1067 93.1215C57.7246 92.0851 58.2093 90.8317 59.1893 90.322L67.6463 85.9229Z" fill="#D9D9D9"/>
<path d="M145.013 132.042C145.776 131.233 147.052 131.201 147.854 131.971L155.913 139.712C156.704 140.472 156.736 141.727 155.984 142.526L150.329 148.53C149.566 149.339 148.289 149.371 147.487 148.601L139.428 140.86C138.637 140.1 138.606 138.845 139.358 138.046L145.013 132.042Z" fill="#D9D9D9"/>
<path d="M156.671 131.47C157.434 130.661 158.711 130.629 159.513 131.399L167.572 139.14C168.363 139.9 168.394 141.155 167.642 141.954L161.987 147.958C161.224 148.767 159.948 148.799 159.146 148.029L151.087 140.288C150.296 139.528 150.264 138.273 151.016 137.474L156.671 131.47Z" fill="#D9D9D9"/>
<defs>
<filter id="filter0_f_4_29" x="0" y="0" width="285.583" height="163.564" filterUnits="userSpaceOnUse" color-interpolation-filters="sRGB">
<feFlood flood-opacity="0" result="BackgroundImageFix"/>
<feBlend mode="normal" in="SourceGraphic" in2="BackgroundImageFix" result="shape"/>
<feGaussianBlur stdDeviation="5" result="effect1_foregroundBlur_4_29"/>
</filter>
<filter id="filter1_f_4_29" x="3" y="1" width="285.583" height="163.564" filterUnits="userSpaceOnUse" color-interpolation-filters="sRGB">
<feFlood flood-opacity="0" result="BackgroundImageFix"/>
<feBlend mode="normal" in="SourceGraphic" in2="BackgroundImageFix" result="shape"/>
<feGaussianBlur stdDeviation="5" result="effect1_foregroundBlur_4_29"/>
</filter>
<filter id="filter2_f_4_29" x="11" y="9" width="269.583" height="147.564" filterUnits="userSpaceOnUse" color-interpolation-filters="sRGB">
<feFlood flood-opacity="0" result="BackgroundImageFix"/>
<feBlend mode="normal" in="SourceGraphic" in2="BackgroundImageFix" result="shape"/>
<feGaussianBlur stdDeviation="1" result="effect1_foregroundBlur_4_29"/>
</filter>
<filter id="filter3_f_4_29" x="8" y="6" width="269.583" height="147.564" filterUnits="userSpaceOnUse" color-interpolation-filters="sRGB">
<feFlood flood-opacity="0" result="BackgroundImageFix"/>
<feBlend mode="normal" in="SourceGraphic" in2="BackgroundImageFix" result="shape"/>
<feGaussianBlur stdDeviation="1" result="effect1_foregroundBlur_4_29"/>
</filter>
</defs>
</svg>
