<svg width="485" height="311" viewBox="0 0 485 311" fill="none" xmlns="http://www.w3.org/2000/svg">
<path opacity="0.543" fill-rule="evenodd" clip-rule="evenodd" d="M264.293 87.039L245.01 117.172C244.611 117.795 244.059 118.307 243.407 118.657C242.754 119.008 242.023 119.186 241.282 119.174C240.542 119.162 239.817 118.962 239.175 118.591C238.534 118.22 237.998 117.692 237.619 117.056L221.226 89.5765C220.847 88.9404 220.636 88.2179 220.614 87.4776C220.593 86.7373 220.761 86.0037 221.102 85.3465C221.444 84.6894 221.948 84.1304 222.566 83.7228C223.184 83.3151 223.897 83.0723 224.635 83.0174L260.311 80.364C261.116 80.3042 261.921 80.4696 262.637 80.8418C263.353 81.214 263.951 81.7781 264.365 82.4711C264.778 83.164 264.99 83.9584 264.978 84.7652C264.965 85.572 264.728 86.3593 264.293 87.039Z" stroke="url(#paint0_linear_3_87)" stroke-width="10"/>
<path opacity="0.543" fill-rule="evenodd" clip-rule="evenodd" d="M398.846 155.403L356.715 168.063C355.843 168.325 354.918 168.36 354.029 168.165C353.139 167.969 352.315 167.549 351.633 166.945C350.952 166.34 350.436 165.572 350.135 164.712C349.834 163.853 349.757 162.931 349.913 162.033L356.637 123.264C356.793 122.367 357.175 121.524 357.748 120.816C358.321 120.108 359.065 119.559 359.911 119.219C360.756 118.88 361.674 118.762 362.577 118.877C363.481 118.992 364.34 119.337 365.073 119.877L400.48 145.986C401.278 146.575 401.897 147.374 402.267 148.295C402.636 149.216 402.742 150.221 402.573 151.199C402.403 152.177 401.965 153.088 401.307 153.83C400.648 154.573 399.796 155.117 398.846 155.403Z" stroke="url(#paint1_linear_3_87)" stroke-width="10"/>
<path opacity="0.543" fill-rule="evenodd" clip-rule="evenodd" d="M238.81 196.649L220.896 196.307C220.525 196.3 220.162 196.198 219.842 196.011C219.521 195.825 219.254 195.559 219.065 195.24C218.876 194.921 218.772 194.558 218.762 194.188C218.753 193.817 218.838 193.45 219.01 193.121L226.449 178.927C226.622 178.599 226.875 178.32 227.185 178.117C227.496 177.914 227.853 177.793 228.223 177.767C228.593 177.741 228.963 177.809 229.299 177.967C229.635 178.124 229.926 178.365 230.142 178.665L240.617 193.202C240.853 193.529 240.993 193.917 241.022 194.32C241.05 194.723 240.966 195.126 240.778 195.484C240.591 195.842 240.307 196.14 239.96 196.346C239.612 196.552 239.214 196.657 238.81 196.649Z" stroke="url(#paint2_linear_3_87)" stroke-width="10"/>
<path opacity="0.543" fill-rule="evenodd" clip-rule="evenodd" d="M290.282 107.569L306.589 123.956C306.927 124.296 307.173 124.713 307.304 125.168C307.435 125.623 307.446 126.101 307.337 126.557C307.229 127.013 307.003 127.431 306.682 127.773C306.361 128.114 305.955 128.366 305.503 128.506L285.97 134.556C285.518 134.696 285.034 134.719 284.566 134.622C284.097 134.525 283.659 134.313 283.292 134.004C282.926 133.696 282.643 133.301 282.472 132.859C282.3 132.416 282.245 131.94 282.312 131.475L285.537 109.038C285.61 108.532 285.825 108.059 286.157 107.672C286.489 107.285 286.926 106.999 287.419 106.846C287.911 106.694 288.44 106.68 288.946 106.808C289.451 106.936 289.914 107.199 290.282 107.569Z" stroke="url(#paint3_linear_3_87)" stroke-width="10"/>
<path d="M325.225 51.3277C357.628 61.302 377.026 81.3974 382.674 90.1983C387.772 99.4881 406.233 123.055 439.297 143.004C480.627 167.939 477.321 183.708 483.107 209.01C488.893 234.313 479.8 257.049 477.321 267.683C474.841 278.317 447.149 321.955 397.967 295.919C348.784 269.883 304.56 278.317 288.028 288.952C271.496 299.586 172.717 316.088 122.707 309.487C72.6975 302.887 39.6333 280.518 21.448 257.049C3.2627 233.58 30.1273 231.013 26.8209 174.907C23.5145 118.801 -16.9891 107.433 8.22232 65.9958L8.77762 65.0831C33.5462 24.3691 41.2819 11.6533 96.2557 2.18938C151.638 -7.34492 160.731 15.7574 207.434 42.5268C254.137 69.2962 284.722 38.8598 325.225 51.3277Z" fill="#A5C882" fill-opacity="0.25"/>
<path d="M325.225 51.3277C357.628 61.302 377.026 81.3974 382.674 90.1983C387.772 99.4881 406.233 123.055 439.297 143.004C480.627 167.939 477.321 183.708 483.107 209.01C488.893 234.313 479.8 257.049 477.321 267.683C474.841 278.317 447.149 321.955 397.967 295.919C348.784 269.883 304.56 278.317 288.028 288.952C271.496 299.586 172.717 316.088 122.707 309.487C72.6975 302.887 39.6333 280.518 21.448 257.049C3.2627 233.58 30.1273 231.013 26.8209 174.907C23.5145 118.801 -16.9891 107.433 8.22232 65.9958L8.77762 65.0831C33.5462 24.3691 41.2819 11.6533 96.2557 2.18938C151.638 -7.34492 160.731 15.7574 207.434 42.5268C254.137 69.2962 284.722 38.8598 325.225 51.3277Z" fill="black" fill-opacity="0.2"/>
<g filter="url(#filter0_d_3_87)">
<path d="M112.5 182.961C112.5 197.852 100.412 209.923 85.5 209.923C70.5883 209.923 58.5 197.852 58.5 182.961C58.5 168.071 70.5883 156 85.5 156C100.412 156 112.5 168.071 112.5 182.961Z" fill="#AFE47A"/>
<path d="M59.175 209.923C59.175 208.061 60.686 206.552 62.55 206.552H109.125C110.989 206.552 112.5 208.061 112.5 209.923C112.5 211.784 110.989 213.293 109.125 213.293H62.55C60.686 213.293 59.175 211.784 59.175 209.923Z" fill="#AFE47A"/>
<path d="M45 274.63C45 272.769 46.511 271.26 48.375 271.26H122.625C124.489 271.26 126 272.769 126 274.63C126 276.491 124.489 278 122.625 278H48.375C46.511 278 45 276.491 45 274.63Z" fill="#AFE47A"/>
<path d="M76.2984 211.064C79.9103 203.208 91.0897 203.208 94.7016 211.064L117.494 260.638C120.573 267.336 115.672 274.967 108.292 274.967H62.708C55.3277 274.967 50.4271 267.336 53.5064 260.638L76.2984 211.064Z" fill="#AFE47A"/>
</g>
<g filter="url(#filter1_d_3_87)">
<path d="M444 200.099C444 212.305 434.15 222.199 422 222.199C409.85 222.199 400 212.305 400 200.099C400 187.894 409.85 178 422 178C434.15 178 444 187.894 444 200.099Z" fill="#839E68"/>
<path d="M400.55 222.199C400.55 220.673 401.781 219.436 403.3 219.436H441.25C442.769 219.436 444 220.673 444 222.199C444 223.725 442.769 224.961 441.25 224.961H403.3C401.781 224.961 400.55 223.725 400.55 222.199Z" fill="#839E68"/>
<path d="M389 275.238C389 273.712 390.231 272.475 391.75 272.475H452.25C453.769 272.475 455 273.712 455 275.238C455 276.763 453.769 278 452.25 278H391.75C390.231 278 389 276.763 389 275.238Z" fill="#839E68"/>
<path d="M414.502 223.134C417.445 216.695 426.555 216.695 429.498 223.134L448.069 263.769C450.578 269.259 446.585 275.514 440.571 275.514H403.429C397.415 275.514 393.422 269.259 395.931 263.769L414.502 223.134Z" fill="#839E68"/>
</g>
<g filter="url(#filter2_d_3_87)">
<path d="M371 200.099C371 212.305 361.15 222.199 349 222.199C336.85 222.199 327 212.305 327 200.099C327 187.894 336.85 178 349 178C361.15 178 371 187.894 371 200.099Z" fill="#839E68"/>
<path d="M327.55 222.199C327.55 220.673 328.781 219.436 330.3 219.436H368.25C369.769 219.436 371 220.673 371 222.199C371 223.725 369.769 224.961 368.25 224.961H330.3C328.781 224.961 327.55 223.725 327.55 222.199Z" fill="#839E68"/>
<path d="M316 275.238C316 273.712 317.231 272.475 318.75 272.475H379.25C380.769 272.475 382 273.712 382 275.238C382 276.763 380.769 278 379.25 278H318.75C317.231 278 316 276.763 316 275.238Z" fill="#839E68"/>
<path d="M341.502 223.134C344.445 216.695 353.555 216.695 356.498 223.134L375.069 263.769C377.578 269.259 373.585 275.514 367.571 275.514H330.429C324.415 275.514 320.422 269.259 322.931 263.769L341.502 223.134Z" fill="#839E68"/>
</g>
<g filter="url(#filter3_d_3_87)">
<path d="M298 200.099C298 212.305 288.15 222.199 276 222.199C263.85 222.199 254 212.305 254 200.099C254 187.894 263.85 178 276 178C288.15 178 298 187.894 298 200.099Z" fill="#839E68"/>
<path d="M254.55 222.199C254.55 220.673 255.781 219.436 257.3 219.436H295.25C296.769 219.436 298 220.673 298 222.199C298 223.725 296.769 224.961 295.25 224.961H257.3C255.781 224.961 254.55 223.725 254.55 222.199Z" fill="#839E68"/>
<path d="M243 275.238C243 273.712 244.231 272.475 245.75 272.475H306.25C307.769 272.475 309 273.712 309 275.238C309 276.763 307.769 278 306.25 278H245.75C244.231 278 243 276.763 243 275.238Z" fill="#839E68"/>
<path d="M268.502 223.134C271.445 216.695 280.555 216.695 283.498 223.134L302.069 263.769C304.578 269.259 300.585 275.514 294.571 275.514H257.429C251.415 275.514 247.422 269.259 249.931 263.769L268.502 223.134Z" fill="#839E68"/>
</g>
<g filter="url(#filter4_d_3_87)">
<path d="M195.548 138.776C191.945 146.432 181.055 146.432 177.452 138.776L160.735 103.259C157.613 96.626 162.453 89 169.783 89H203.217C210.547 89 215.387 96.626 212.265 103.259L195.548 138.776Z" fill="#5AB1BB"/>
<path d="M180 62C180 59.2386 182.239 57 185 57H188C190.761 57 193 59.2386 193 62V95C193 97.7614 190.761 100 188 100H185C182.239 100 180 97.7614 180 95V62Z" fill="#5AB1BB"/>
<path d="M199 68C201.761 68 204 70.2386 204 73V76C204 78.7614 201.761 81 199 81H175C172.239 81 170 78.7614 170 76V73C170 70.2386 172.239 68 175 68H199Z" fill="#5AB1BB"/>
<path d="M187.324 135.233L165.33 142.817C163.452 143.465 163.577 146.128 165.516 146.561C181.598 150.147 192.797 150.376 208.979 146.545C210.87 146.098 210.994 143.516 209.172 142.842L188.671 135.248C188.237 135.088 187.761 135.082 187.324 135.233Z" fill="#5AB1BB"/>
<path d="M185.742 169.981L162.102 150.846C160.823 149.81 161.276 147.761 162.878 147.381C181.168 143.044 192.914 142.719 211.23 147.34C212.809 147.738 213.238 149.761 211.972 150.786L188.258 169.981C187.525 170.575 186.475 170.575 185.742 169.981Z" fill="#5AB1BB"/>
<path d="M188.488 135.25V243.778L217.488 250.25H159.488L173.612 220.422C174.407 218.742 174.964 216.961 175.268 215.128L188.488 135.25Z" fill="#5AB1BB"/>
<path d="M188.488 135.25V243.778L159.488 250.25H217.488L203.364 220.422C202.569 218.742 202.011 216.961 201.708 215.128L188.488 135.25Z" fill="#5AB1BB"/>
<path d="M149 255C149 252.239 151.239 250 154 250H219C221.761 250 224 252.239 224 255V267C224 269.761 221.761 272 219 272H154C151.239 272 149 269.761 149 267V255Z" fill="#5AB1BB"/>
<path d="M138 272C138 268.686 140.686 266 144 266H230C233.314 266 236 268.686 236 272C236 275.314 233.314 278 230 278H144C140.686 278 138 275.314 138 272Z" fill="#5AB1BB"/>
</g>
<g filter="url(#filter5_d_3_87)">
<path d="M82.7748 102.95V99.9801C82.7748 97.946 85.1139 96.8014 86.7201 98.0495C88.1828 99.1861 90.329 98.3467 90.6324 96.5194L90.7721 95.6781C90.8479 95.2215 90.8154 94.7536 90.6771 94.3119L89.5811 90.8118C88.8165 88.37 86.7614 86.5531 84.2443 86.0938C83.5774 85.9721 82.8961 85.9495 82.2226 86.0267L80.9928 86.1678C77.3942 86.5806 74.3334 88.9821 73.0763 92.3792C72.4467 94.0807 72.3117 95.9257 72.6868 97.7007L72.9644 99.0143C73.4697 101.405 74.5813 103.626 76.1924 105.464L78.8344 108.478L82.1001 112.302C84.5302 115.147 86.3184 118.483 87.3429 122.083L88.0218 124.468C88.2314 125.204 88.3377 125.966 88.3377 126.731V131.175C88.3377 133.288 86.6255 135 84.5132 135C82.401 135 80.6887 133.288 80.6887 131.175V126.714C80.6887 125.96 80.5857 125.209 80.3826 124.483L79.9959 123.1C79.2316 120.367 77.8569 117.843 75.9754 115.719L75.1258 114.759L68.2143 105.996C66.963 104.41 66.047 102.586 65.5217 100.635C64.5435 97.0021 64.9736 93.1339 66.7259 89.8047L67.4915 88.3501C69.4235 84.6794 72.6314 81.842 76.5107 80.3727L77.2609 80.0885C80.8042 78.7464 84.7248 78.7989 88.2309 80.2353L88.6674 80.4141C92.1587 81.8445 94.9156 84.637 96.301 88.1464L96.3538 88.2802C98.0087 92.4724 97.4762 97.2124 94.9324 100.933L92.469 104.536C91.4793 105.983 89.8388 106.849 88.0853 106.849H86.6734C84.5203 106.849 82.7748 105.104 82.7748 102.95Z" fill="#AFE47A"/>
</g>
<g filter="url(#filter6_d_3_87)">
<circle cx="84" cy="142" r="5" fill="#AFE47A"/>
</g>
<path fill-rule="evenodd" clip-rule="evenodd" d="M144.524 140.635C148.444 141.989 152.72 139.909 154.073 135.989C155.427 132.069 153.346 127.794 149.426 126.44L140.163 123.241L143.445 113.737C144.799 109.817 142.718 105.542 138.798 104.189C134.878 102.835 130.603 104.915 129.249 108.835L125.968 118.339L116.704 115.141C112.784 113.787 108.509 115.867 107.156 119.787C105.802 123.707 107.883 127.982 111.803 129.336L121.066 132.535L117.95 141.557C116.596 145.477 118.677 149.753 122.597 151.106C126.517 152.46 130.792 150.379 132.146 146.459L135.261 137.437L144.524 140.635ZM144.717 137.468C147.097 138.29 149.692 137.027 150.514 134.647C151.335 132.268 150.072 129.672 147.693 128.851L136.446 124.967L140.33 113.721C141.151 111.341 139.889 108.746 137.509 107.924C135.129 107.102 132.534 108.365 131.712 110.745L127.829 121.991L116.582 118.108C114.202 117.286 111.607 118.549 110.785 120.929C109.964 123.308 111.227 125.904 113.606 126.725L124.852 130.609L124.852 130.613L120.969 141.855C120.148 144.235 121.41 146.83 123.79 147.652C126.17 148.474 128.765 147.211 129.587 144.831L133.47 133.586L144.717 137.468Z" fill="#AFE47A" fill-opacity="0.4"/>
<path fill-rule="evenodd" clip-rule="evenodd" d="M132.294 206.758C133.416 209.302 136.294 210.336 138.723 209.066C141.151 207.797 142.211 204.705 141.089 202.161L138.438 196.149L144.326 193.071C146.755 191.802 147.814 188.71 146.693 186.166C145.571 183.622 142.693 182.588 140.264 183.857L134.376 186.935L131.725 180.922C130.604 178.378 127.726 177.345 125.297 178.614C122.868 179.883 121.809 182.975 122.931 185.519L125.581 191.532L119.992 194.453C117.563 195.723 116.503 198.814 117.625 201.358C118.747 203.903 121.625 204.936 124.054 203.667L129.644 200.745L132.294 206.758ZM133.854 205.3C134.535 206.844 136.282 207.472 137.756 206.701C139.231 205.93 139.874 204.054 139.193 202.509L135.974 195.209L142.942 191.568C144.417 190.797 145.06 188.92 144.379 187.376C143.698 185.831 141.951 185.204 140.476 185.974L133.509 189.616L130.29 182.316C129.609 180.772 127.862 180.144 126.388 180.915C124.914 181.686 124.27 183.562 124.951 185.107L128.169 192.406L128.167 192.408L121.202 196.048C119.728 196.819 119.084 198.696 119.765 200.24C120.446 201.785 122.194 202.412 123.668 201.642L130.635 198L133.854 205.3Z" fill="#AFE47A" fill-opacity="0.4"/>
<path fill-rule="evenodd" clip-rule="evenodd" d="M71.8613 62.7365C75.9846 62.2929 78.9676 58.5906 78.5239 54.4672C78.0802 50.3439 74.3779 47.361 70.2546 47.8046L60.5109 48.8531L59.4352 38.8563C58.9915 34.733 55.2893 31.75 51.1659 32.1937C47.0426 32.6374 44.0597 36.3397 44.5033 40.463L45.579 50.4598L35.8353 51.5082C31.712 51.9519 28.7291 55.6542 29.1727 59.7775C29.6164 63.9009 33.3187 66.8838 37.442 66.4401L47.1857 65.3917L48.2069 74.8823C48.6506 79.0056 52.3529 81.9886 56.4762 81.5449C60.5996 81.1012 63.5825 77.3989 63.1388 73.2756L62.1176 63.785L71.8613 62.7365ZM70.6873 59.7886C73.1904 59.5193 75.0012 57.2718 74.7319 54.7687C74.4626 52.2656 72.2151 50.4548 69.712 50.7241L57.882 51.997L56.6091 40.1671C56.3397 37.664 54.0922 35.8532 51.5891 36.1225C49.086 36.3919 47.2752 38.6394 47.5446 41.1425L48.8175 52.9724L36.9876 54.2453C34.4845 54.5147 32.6737 56.7622 32.943 59.2653C33.2123 61.7684 35.4598 63.5792 37.9629 63.3098L49.792 62.037L49.7933 62.0411L51.0658 73.8668C51.3351 76.3699 53.5826 78.1808 56.0857 77.9114C58.5888 77.6421 60.3996 75.3946 60.1303 72.8915L58.8575 61.063L70.6873 59.7886Z" fill="#AFE47A" fill-opacity="0.4"/>
<path fill-rule="evenodd" clip-rule="evenodd" d="M132.949 55.5441C134.252 57.2324 136.615 57.4945 138.226 56.1294C139.837 54.7643 140.086 52.289 138.783 50.6007L135.703 46.611L139.609 43.3015C141.22 41.9364 141.469 39.4611 140.166 37.7727C138.863 36.0844 136.5 35.8223 134.889 37.1874L130.983 40.497L127.904 36.5073C126.6 34.819 124.238 34.5569 122.627 35.922C121.016 37.2871 120.767 39.7623 122.07 41.4507L125.15 45.4404L121.442 48.5823C119.831 49.9474 119.581 52.4227 120.884 54.1111C122.188 55.7994 124.55 56.0615 126.161 54.6964L129.869 51.5544L132.949 55.5441ZM133.868 54.1912C134.66 55.2161 136.094 55.3752 137.072 54.5465C138.05 53.7178 138.201 52.2152 137.41 51.1902L133.671 46.3463L138.293 42.4299C139.271 41.6012 139.422 40.0985 138.631 39.0736C137.84 38.0487 136.406 37.8896 135.428 38.7183L130.806 42.6348L127.067 37.7908C126.276 36.7659 124.841 36.6068 123.863 37.4355C122.886 38.2642 122.734 39.7668 123.525 40.7918L127.264 45.6353L127.263 45.6371L122.642 49.5521C121.664 50.3808 121.513 51.8834 122.304 52.9084C123.095 53.9333 124.529 54.0924 125.507 53.2637L130.129 49.3477L133.868 54.1912Z" fill="#AFE47A" fill-opacity="0.4"/>
<path fill-rule="evenodd" clip-rule="evenodd" d="M55.6064 165.097C58.1552 165.821 61.0522 164.369 62.0771 161.855C63.102 159.342 61.8667 156.718 59.3179 155.995L53.295 154.286L55.7798 148.191C56.8047 145.678 55.5694 143.054 53.0206 142.33C50.4718 141.607 47.5748 143.059 46.5499 145.572L44.065 151.666L38.0421 149.957C35.4933 149.234 32.5963 150.686 31.5714 153.199C30.5465 155.713 31.7818 158.337 34.3306 159.06L40.3535 160.769L37.9945 166.555C36.9696 169.069 38.205 171.693 40.7537 172.416C43.3025 173.139 46.1996 171.688 47.2245 169.174L49.5835 163.388L55.6064 165.097ZM55.8383 163.096C57.3855 163.535 59.1442 162.654 59.7664 161.128C60.3885 159.602 59.6386 158.009 58.0914 157.57L50.7788 155.495L53.7193 148.283C54.3415 146.758 53.5916 145.165 52.0443 144.726C50.4971 144.286 48.7384 145.168 48.1162 146.694L45.1757 153.905L37.8632 151.83C36.3159 151.391 34.5573 152.272 33.9351 153.798C33.3129 155.324 34.0628 156.917 35.6101 157.356L42.9221 159.431L42.9216 159.434L39.9821 166.643C39.36 168.169 40.1099 169.762 41.6571 170.201C43.2044 170.64 44.9631 169.759 45.5853 168.233L48.5254 161.022L55.8383 163.096Z" fill="#AFE47A" fill-opacity="0.4"/>
<defs>
<filter id="filter0_d_3_87" x="41" y="156" width="89" height="130" filterUnits="userSpaceOnUse" color-interpolation-filters="sRGB">
<feFlood flood-opacity="0" result="BackgroundImageFix"/>
<feColorMatrix in="SourceAlpha" type="matrix" values="0 0 0 0 0 0 0 0 0 0 0 0 0 0 0 0 0 0 127 0" result="hardAlpha"/>
<feOffset dy="4"/>
<feGaussianBlur stdDeviation="2"/>
<feComposite in2="hardAlpha" operator="out"/>
<feColorMatrix type="matrix" values="0 0 0 0 0 0 0 0 0 0 0 0 0 0 0 0 0 0 0.25 0"/>
<feBlend mode="normal" in2="BackgroundImageFix" result="effect1_dropShadow_3_87"/>
<feBlend mode="normal" in="SourceGraphic" in2="effect1_dropShadow_3_87" result="shape"/>
</filter>
<filter id="filter1_d_3_87" x="385" y="178" width="74" height="108" filterUnits="userSpaceOnUse" color-interpolation-filters="sRGB">
<feFlood flood-opacity="0" result="BackgroundImageFix"/>
<feColorMatrix in="SourceAlpha" type="matrix" values="0 0 0 0 0 0 0 0 0 0 0 0 0 0 0 0 0 0 127 0" result="hardAlpha"/>
<feOffset dy="4"/>
<feGaussianBlur stdDeviation="2"/>
<feComposite in2="hardAlpha" operator="out"/>
<feColorMatrix type="matrix" values="0 0 0 0 0 0 0 0 0 0 0 0 0 0 0 0 0 0 0.25 0"/>
<feBlend mode="normal" in2="BackgroundImageFix" result="effect1_dropShadow_3_87"/>
<feBlend mode="normal" in="SourceGraphic" in2="effect1_dropShadow_3_87" result="shape"/>
</filter>
<filter id="filter2_d_3_87" x="312" y="178" width="74" height="108" filterUnits="userSpaceOnUse" color-interpolation-filters="sRGB">
<feFlood flood-opacity="0" result="BackgroundImageFix"/>
<feColorMatrix in="SourceAlpha" type="matrix" values="0 0 0 0 0 0 0 0 0 0 0 0 0 0 0 0 0 0 127 0" result="hardAlpha"/>
<feOffset dy="4"/>
<feGaussianBlur stdDeviation="2"/>
<feComposite in2="hardAlpha" operator="out"/>
<feColorMatrix type="matrix" values="0 0 0 0 0 0 0 0 0 0 0 0 0 0 0 0 0 0 0.25 0"/>
<feBlend mode="normal" in2="BackgroundImageFix" result="effect1_dropShadow_3_87"/>
<feBlend mode="normal" in="SourceGraphic" in2="effect1_dropShadow_3_87" result="shape"/>
</filter>
<filter id="filter3_d_3_87" x="239" y="178" width="74" height="108" filterUnits="userSpaceOnUse" color-interpolation-filters="sRGB">
<feFlood flood-opacity="0" result="BackgroundImageFix"/>
<feColorMatrix in="SourceAlpha" type="matrix" values="0 0 0 0 0 0 0 0 0 0 0 0 0 0 0 0 0 0 127 0" result="hardAlpha"/>
<feOffset dy="4"/>
<feGaussianBlur stdDeviation="2"/>
<feComposite in2="hardAlpha" operator="out"/>
<feColorMatrix type="matrix" values="0 0 0 0 0 0 0 0 0 0 0 0 0 0 0 0 0 0 0.25 0"/>
<feBlend mode="normal" in2="BackgroundImageFix" result="effect1_dropShadow_3_87"/>
<feBlend mode="normal" in="SourceGraphic" in2="effect1_dropShadow_3_87" result="shape"/>
</filter>
<filter id="filter4_d_3_87" x="134" y="57" width="106" height="229" filterUnits="userSpaceOnUse" color-interpolation-filters="sRGB">
<feFlood flood-opacity="0" result="BackgroundImageFix"/>
<feColorMatrix in="SourceAlpha" type="matrix" values="0 0 0 0 0 0 0 0 0 0 0 0 0 0 0 0 0 0 127 0" result="hardAlpha"/>
<feOffset dy="4"/>
<feGaussianBlur stdDeviation="2"/>
<feComposite in2="hardAlpha" operator="out"/>
<feColorMatrix type="matrix" values="0 0 0 0 0 0 0 0 0 0 0 0 0 0 0 0 0 0 0.25 0"/>
<feBlend mode="normal" in2="BackgroundImageFix" result="effect1_dropShadow_3_87"/>
<feBlend mode="normal" in="SourceGraphic" in2="effect1_dropShadow_3_87" result="shape"/>
</filter>
<filter id="filter5_d_3_87" x="61.0085" y="79.1186" width="40.2941" height="63.8814" filterUnits="userSpaceOnUse" color-interpolation-filters="sRGB">
<feFlood flood-opacity="0" result="BackgroundImageFix"/>
<feColorMatrix in="SourceAlpha" type="matrix" values="0 0 0 0 0 0 0 0 0 0 0 0 0 0 0 0 0 0 127 0" result="hardAlpha"/>
<feOffset dy="4"/>
<feGaussianBlur stdDeviation="2"/>
<feComposite in2="hardAlpha" operator="out"/>
<feColorMatrix type="matrix" values="0 0 0 0 0 0 0 0 0 0 0 0 0 0 0 0 0 0 0.25 0"/>
<feBlend mode="normal" in2="BackgroundImageFix" result="effect1_dropShadow_3_87"/>
<feBlend mode="normal" in="SourceGraphic" in2="effect1_dropShadow_3_87" result="shape"/>
</filter>
<filter id="filter6_d_3_87" x="75" y="137" width="18" height="18" filterUnits="userSpaceOnUse" color-interpolation-filters="sRGB">
<feFlood flood-opacity="0" result="BackgroundImageFix"/>
<feColorMatrix in="SourceAlpha" type="matrix" values="0 0 0 0 0 0 0 0 0 0 0 0 0 0 0 0 0 0 127 0" result="hardAlpha"/>
<feOffset dy="4"/>
<feGaussianBlur stdDeviation="2"/>
<feComposite in2="hardAlpha" operator="out"/>
<feColorMatrix type="matrix" values="0 0 0 0 0 0 0 0 0 0 0 0 0 0 0 0 0 0 0.25 0"/>
<feBlend mode="normal" in2="BackgroundImageFix" result="effect1_dropShadow_3_87"/>
<feBlend mode="normal" in="SourceGraphic" in2="effect1_dropShadow_3_87" result="shape"/>
</filter>
<linearGradient id="paint0_linear_3_87" x1="-6947.29" y1="-235.13" x2="-119.038" y2="3410.67" gradientUnits="userSpaceOnUse">
<stop offset="1" stop-color="#AFE47A"/>
</linearGradient>
<linearGradient id="paint1_linear_3_87" x1="-6070.53" y1="-5923.1" x2="-2621.67" y2="2948.81" gradientUnits="userSpaceOnUse">
<stop offset="1" stop-color="#AFE47A"/>
</linearGradient>
<linearGradient id="paint2_linear_3_87" x1="-1511.95" y1="-2966.52" x2="-1280.51" y2="903.266" gradientUnits="userSpaceOnUse">
<stop offset="1" stop-color="#AFE47A"/>
</linearGradient>
<linearGradient id="paint3_linear_3_87" x1="-901.674" y1="4515.66" x2="2291.39" y2="806.171" gradientUnits="userSpaceOnUse">
<stop offset="1" stop-color="#AFE47A"/>
</linearGradient>
</defs>
</svg>
