<svg width="400" height="434" viewBox="0 0 400 434" fill="none" xmlns="http://www.w3.org/2000/svg">
<g opacity="0.6">
<rect x="0.5" y="34.5" width="99" height="99" fill="#5AB1BB"/>
<rect x="0.5" y="34.5" width="99" height="99" stroke="#484848"/>
</g>
<g opacity="0.6">
<rect x="0.5" y="234.5" width="99" height="99" fill="#5AB1BB"/>
<rect x="0.5" y="234.5" width="99" height="99" stroke="#484848"/>
<g filter="url(#filter0_d_10_45)">
<path d="M67.6464 261.459C67.6464 271.101 59.8299 278.917 50.1878 278.917C40.5457 278.917 32.7293 271.101 32.7293 261.459C32.7293 251.816 40.5457 244 50.1878 244C59.8299 244 67.6464 251.816 67.6464 261.459Z" fill="#1E1E1E"/>
<path d="M33.1657 278.917C33.1657 277.712 34.1428 276.735 35.3481 276.735H65.4641C66.6694 276.735 67.6464 277.712 67.6464 278.917C67.6464 280.122 66.6694 281.099 65.4641 281.099H35.3481C34.1428 281.099 33.1657 280.122 33.1657 278.917Z" fill="#1E1E1E"/>
<path d="M24 320.818C24 319.612 24.9771 318.635 26.1823 318.635H74.1934C75.3986 318.635 76.3757 319.612 76.3757 320.818C76.3757 322.023 75.3986 323 74.1934 323H26.1823C24.9771 323 24 322.023 24 320.818Z" fill="#1E1E1E"/>
<path d="M44.238 279.656C46.5735 274.569 53.8022 274.569 56.1377 279.656L70.8754 311.757C72.8665 316.094 69.6977 321.036 64.9255 321.036H35.4502C30.678 321.036 27.5092 316.094 29.5003 311.757L44.238 279.656Z" fill="#1E1E1E"/>
</g>
</g>
<g opacity="0.6">
<rect x="100.5" y="134.5" width="99" height="99" fill="#5AB1BB"/>
<rect x="100.5" y="134.5" width="99" height="99" stroke="#484848"/>
</g>
<g opacity="0.6">
<rect x="100.5" y="334.5" width="99" height="99" fill="#5AB1BB"/>
<rect x="100.5" y="334.5" width="99" height="99" stroke="#484848"/>
<g filter="url(#filter1_d_10_45)">
<path d="M167.646 361.459C167.646 371.101 159.83 378.917 150.188 378.917C140.546 378.917 132.729 371.101 132.729 361.459C132.729 351.816 140.546 344 150.188 344C159.83 344 167.646 351.816 167.646 361.459Z" fill="#1E1E1E"/>
<path d="M133.166 378.917C133.166 377.712 134.143 376.735 135.348 376.735H165.464C166.669 376.735 167.646 377.712 167.646 378.917C167.646 380.122 166.669 381.099 165.464 381.099H135.348C134.143 381.099 133.166 380.122 133.166 378.917Z" fill="#1E1E1E"/>
<path d="M124 420.818C124 419.612 124.977 418.635 126.182 418.635H174.193C175.399 418.635 176.376 419.612 176.376 420.818C176.376 422.023 175.399 423 174.193 423H126.182C124.977 423 124 422.023 124 420.818Z" fill="#1E1E1E"/>
<path d="M144.238 379.656C146.573 374.569 153.802 374.569 156.138 379.656L170.875 411.757C172.866 416.094 169.698 421.036 164.925 421.036H135.45C130.678 421.036 127.509 416.094 129.5 411.757L144.238 379.656Z" fill="#1E1E1E"/>
</g>
</g>
<g opacity="0.6">
<rect x="200.5" y="34.5" width="99" height="99" fill="#5AB1BB"/>
<rect x="200.5" y="34.5" width="99" height="99" stroke="#484848"/>
</g>
<g opacity="0.6">
<rect x="300.5" y="134.5" width="99" height="99" fill="#5AB1BB"/>
<rect x="300.5" y="134.5" width="99" height="99" stroke="#484848"/>
</g>
<g opacity="0.6">
<rect x="300.5" y="334.5" width="99" height="99" fill="#5AB1BB"/>
<rect x="300.5" y="334.5" width="99" height="99" stroke="#484848"/>
</g>
<g opacity="0.6">
<rect x="100.5" y="234.5" width="99" height="99" fill="#A5C882"/>
<rect x="100.5" y="234.5" width="99" height="99" stroke="#484848"/>
</g>
<g opacity="0.6">
<rect x="200.5" y="134.5" width="99" height="99" fill="#A5C882"/>
<rect x="200.5" y="134.5" width="99" height="99" stroke="#484848"/>
<g filter="url(#filter2_d_10_45)">
<path d="M267.646 161.459C267.646 171.101 259.83 178.917 250.188 178.917C240.546 178.917 232.729 171.101 232.729 161.459C232.729 151.816 240.546 144 250.188 144C259.83 144 267.646 151.816 267.646 161.459Z" fill="#D9D9D9"/>
<path d="M233.166 178.917C233.166 177.712 234.143 176.735 235.348 176.735H265.464C266.669 176.735 267.646 177.712 267.646 178.917C267.646 180.122 266.669 181.099 265.464 181.099H235.348C234.143 181.099 233.166 180.122 233.166 178.917Z" fill="#D9D9D9"/>
<path d="M224 220.818C224 219.612 224.977 218.635 226.182 218.635H274.193C275.399 218.635 276.376 219.612 276.376 220.818C276.376 222.023 275.399 223 274.193 223H226.182C224.977 223 224 222.023 224 220.818Z" fill="#D9D9D9"/>
<path d="M244.238 179.656C246.573 174.569 253.802 174.569 256.138 179.656L270.875 211.757C272.866 216.094 269.698 221.036 264.925 221.036H235.45C230.678 221.036 227.509 216.094 229.5 211.757L244.238 179.656Z" fill="#D9D9D9"/>
</g>
</g>
<g opacity="0.6">
<rect x="200.5" y="334.5" width="99" height="99" fill="#A5C882"/>
<rect x="200.5" y="334.5" width="99" height="99" stroke="#484848"/>
</g>
<g opacity="0.6">
<rect x="300.5" y="34.5" width="99" height="99" fill="#A5C882"/>
<rect x="300.5" y="34.5" width="99" height="99" stroke="#484848"/>
<g filter="url(#filter3_d_10_45)">
<path d="M367.646 61.4586C367.646 71.1007 359.83 78.9171 350.188 78.9171C340.546 78.9171 332.729 71.1007 332.729 61.4586C332.729 51.8165 340.546 44 350.188 44C359.83 44 367.646 51.8165 367.646 61.4586Z" fill="#D9D9D9"/>
<path d="M333.166 78.9171C333.166 77.7119 334.143 76.7348 335.348 76.7348H365.464C366.669 76.7348 367.646 77.7119 367.646 78.9171C367.646 80.1224 366.669 81.0994 365.464 81.0994H335.348C334.143 81.0994 333.166 80.1224 333.166 78.9171Z" fill="#D9D9D9"/>
<path d="M324 120.818C324 119.612 324.977 118.635 326.182 118.635H374.193C375.399 118.635 376.376 119.612 376.376 120.818C376.376 122.023 375.399 123 374.193 123H326.182C324.977 123 324 122.023 324 120.818Z" fill="#D9D9D9"/>
<path d="M344.238 79.6561C346.573 74.5689 353.802 74.5689 356.138 79.6561L370.875 111.757C372.866 116.094 369.698 121.036 364.925 121.036H335.45C330.678 121.036 327.509 116.094 329.5 111.757L344.238 79.6561Z" fill="#D9D9D9"/>
</g>
</g>
<g opacity="0.6">
<rect x="300.5" y="234.5" width="99" height="99" fill="#A5C882"/>
<rect x="300.5" y="234.5" width="99" height="99" stroke="#484848"/>
<g filter="url(#filter4_d_10_45)">
<path d="M367.646 261.459C367.646 271.101 359.83 278.917 350.188 278.917C340.546 278.917 332.729 271.101 332.729 261.459C332.729 251.816 340.546 244 350.188 244C359.83 244 367.646 251.816 367.646 261.459Z" fill="#1E1E1E"/>
<path d="M333.166 278.917C333.166 277.712 334.143 276.735 335.348 276.735H365.464C366.669 276.735 367.646 277.712 367.646 278.917C367.646 280.122 366.669 281.099 365.464 281.099H335.348C334.143 281.099 333.166 280.122 333.166 278.917Z" fill="#1E1E1E"/>
<path d="M324 320.818C324 319.612 324.977 318.635 326.182 318.635H374.193C375.399 318.635 376.376 319.612 376.376 320.818C376.376 322.023 375.399 323 374.193 323H326.182C324.977 323 324 322.023 324 320.818Z" fill="#1E1E1E"/>
<path d="M344.238 279.656C346.573 274.569 353.802 274.569 356.138 279.656L370.875 311.757C372.866 316.094 369.698 321.036 364.925 321.036H335.45C330.678 321.036 327.509 316.094 329.5 311.757L344.238 279.656Z" fill="#1E1E1E"/>
</g>
</g>
<g opacity="0.6">
<rect x="0.5" y="134.5" width="99" height="99" fill="#A5C882"/>
<rect x="0.5" y="134.5" width="99" height="99" stroke="#484848"/>
</g>
<g opacity="0.6">
<rect x="0.5" y="334.5" width="99" height="99" fill="#A5C882"/>
<rect x="0.5" y="334.5" width="99" height="99" stroke="#484848"/>
</g>
<g filter="url(#filter5_d_10_45)">
<rect x="186" y="220" width="128" height="128" fill="#A0A0A0"/>
<rect x="186.5" y="220.5" width="127" height="127" stroke="#484848"/>
</g>
<g filter="url(#filter6_d_10_45)">
<rect x="86" y="20" width="128" height="128" fill="#A5C882"/>
<rect x="86.5" y="20.5" width="127" height="127" stroke="#484848"/>
</g>
<g filter="url(#filter7_d_10_45)">
<path d="M256.106 234.465C253.532 239.938 245.754 239.938 243.18 234.465L231.239 209.072C229.01 204.33 232.466 198.878 237.702 198.878H261.584C266.82 198.878 270.276 204.33 268.046 209.072L256.106 234.465Z" fill="#1E1E1E"/>
<path d="M245 179.575C245 177.6 246.599 176 248.571 176H250.714C252.687 176 254.286 177.6 254.286 179.575V203.167C254.286 205.142 252.687 206.742 250.714 206.742H248.571C246.599 206.742 245 205.142 245 203.167V179.575Z" fill="#1E1E1E"/>
<path d="M258.571 183.864C260.544 183.864 262.143 185.465 262.143 187.439V189.584C262.143 191.558 260.544 193.158 258.571 193.158H241.429C239.456 193.158 237.857 191.558 237.857 189.584V187.439C237.857 185.465 239.456 183.864 241.429 183.864H258.571Z" fill="#1E1E1E"/>
<path d="M250.231 231.931L234.521 237.354C233.18 237.817 233.27 239.721 234.654 240.03C246.141 242.593 254.141 242.757 265.7 240.019C267.05 239.699 267.139 237.853 265.837 237.371L251.193 231.942C250.884 231.827 250.544 231.824 250.231 231.931Z" fill="#1E1E1E"/>
<path d="M249.101 256.774L232.216 243.094C231.302 242.353 231.625 240.888 232.77 240.617C245.834 237.516 254.224 237.283 267.307 240.587C268.435 240.872 268.741 242.318 267.837 243.051L250.899 256.774C250.375 257.199 249.625 257.199 249.101 256.774Z" fill="#1E1E1E"/>
<path d="M251.063 231.943V309.534L271.777 314.161H230.348L240.437 292.835C241.005 291.635 241.403 290.361 241.62 289.051L251.063 231.943Z" fill="#1E1E1E"/>
<path d="M251.063 231.943V309.534L230.348 314.161H271.777L261.688 292.835C261.12 291.635 260.722 290.361 260.506 289.051L251.063 231.943Z" fill="#1E1E1E"/>
<path d="M222.857 317.557C222.857 315.582 224.456 313.982 226.429 313.982H272.857C274.83 313.982 276.429 315.582 276.429 317.557V326.136C276.429 328.11 274.83 329.71 272.857 329.71H226.429C224.456 329.71 222.857 328.11 222.857 326.136V317.557Z" fill="#1E1E1E"/>
<path d="M215 329.71C215 327.341 216.919 325.421 219.286 325.421H280.714C283.081 325.421 285 327.341 285 329.71C285 332.079 283.081 334 280.714 334H219.286C216.919 334 215 332.079 215 329.71Z" fill="#1E1E1E"/>
</g>
<g filter="url(#filter8_d_10_45)">
<path d="M123.096 130C123.096 127.791 124.887 126 127.096 126H166.096C168.305 126 170.096 127.791 170.096 130C170.096 132.209 168.305 134 166.096 134H127.096C124.887 134 123.096 132.209 123.096 130Z" fill="#D9D9D9"/>
<path fill-rule="evenodd" clip-rule="evenodd" d="M107.435 58.9247C105.568 57.0054 105.55 53.959 107.224 51.8693C110.007 48.3949 113.145 43.7834 113.866 40.3028C114.14 38.9779 114.385 37.4466 114.646 35.8139C115.404 31.0742 116.299 25.4799 118.446 21.5979C117.682 21.6363 116.914 21.4714 116.22 21.0715C113.696 19.6181 110.595 17.2672 109.381 14.4251C109.147 13.8779 111.565 13.5378 112.124 13.7403C113.662 14.2968 115.673 14.4251 118.671 14.4251C119.114 14.4251 119.541 14.4326 119.954 14.4466C121.63 14.5033 122.668 15.3199 123.021 16.3935C130.714 9.11598 150.469 -6.34638 177.29 14.4251C205.933 36.6076 179.41 94.5826 166.45 109.549C165.013 111.209 164.366 113.525 165.142 115.579L166.865 120.14C167.288 121.259 167.295 122.492 166.886 123.616L165.033 128.709C164.315 130.685 162.437 132 160.335 132H131.556C129.183 132 127.136 130.332 126.658 128.007L125.608 122.9C125.469 122.223 125.472 121.525 125.616 120.849L127.48 112.123L129.6 105.639C130.081 104.169 129.844 102.566 129.12 101.201C127.805 98.7209 126.148 94.8441 125.397 90.5581C124.372 84.7075 134.687 71.2436 139.972 65.243C142.17 62.9206 144.79 60.6902 147.258 58.5892C154.024 52.83 159.649 48.0419 152.305 44.9908C139.751 39.7756 125.719 50.8097 119.7 60.2452C118.096 62.7584 114.857 64.1591 112.145 62.9202L111.515 62.6322C110.952 62.3747 110.441 62.0148 110.009 61.5707L107.435 58.9247ZM122.596 40C122.596 38.3333 122.696 34.9 123.096 34.5C123.596 34 129.096 30.5 129.596 32.5C129.996 34.1 125.429 38.1667 123.096 40H122.596Z" fill="#D9D9D9"/>
<path d="M137.596 0L136.096 8L164.096 26L169.096 102.5H173.596L172.096 100.5L173.596 98H177.096L175.096 95L177.096 90.5H182.596L179.096 87L181.596 79L189.596 77.5L183.596 73L186.096 63C187.929 62.3333 191.896 61 193.096 61C194.296 61 189.596 58.6667 187.096 57.5L188.596 48L194.596 45L188.596 42.5L187.096 31L191.596 26L183.596 24.5L177.596 16.5V10.5L172.596 13C169.262 11.6667 162.296 8.8 161.096 8C159.896 7.2 159.596 3.33333 159.596 1.5L155.096 6C152.096 5.83333 145.496 5.6 143.096 6C140.696 6.4 138.429 2.16667 137.596 0Z" fill="#D9D9D9"/>
</g>
<defs>
<filter id="filter0_d_10_45" x="20" y="244" width="60.3757" height="87" filterUnits="userSpaceOnUse" color-interpolation-filters="sRGB">
<feFlood flood-opacity="0" result="BackgroundImageFix"/>
<feColorMatrix in="SourceAlpha" type="matrix" values="0 0 0 0 0 0 0 0 0 0 0 0 0 0 0 0 0 0 127 0" result="hardAlpha"/>
<feOffset dy="4"/>
<feGaussianBlur stdDeviation="2"/>
<feComposite in2="hardAlpha" operator="out"/>
<feColorMatrix type="matrix" values="0 0 0 0 0 0 0 0 0 0 0 0 0 0 0 0 0 0 0.25 0"/>
<feBlend mode="normal" in2="BackgroundImageFix" result="effect1_dropShadow_10_45"/>
<feBlend mode="normal" in="SourceGraphic" in2="effect1_dropShadow_10_45" result="shape"/>
</filter>
<filter id="filter1_d_10_45" x="120" y="344" width="60.3757" height="87" filterUnits="userSpaceOnUse" color-interpolation-filters="sRGB">
<feFlood flood-opacity="0" result="BackgroundImageFix"/>
<feColorMatrix in="SourceAlpha" type="matrix" values="0 0 0 0 0 0 0 0 0 0 0 0 0 0 0 0 0 0 127 0" result="hardAlpha"/>
<feOffset dy="4"/>
<feGaussianBlur stdDeviation="2"/>
<feComposite in2="hardAlpha" operator="out"/>
<feColorMatrix type="matrix" values="0 0 0 0 0 0 0 0 0 0 0 0 0 0 0 0 0 0 0.25 0"/>
<feBlend mode="normal" in2="BackgroundImageFix" result="effect1_dropShadow_10_45"/>
<feBlend mode="normal" in="SourceGraphic" in2="effect1_dropShadow_10_45" result="shape"/>
</filter>
<filter id="filter2_d_10_45" x="220" y="144" width="60.3757" height="87" filterUnits="userSpaceOnUse" color-interpolation-filters="sRGB">
<feFlood flood-opacity="0" result="BackgroundImageFix"/>
<feColorMatrix in="SourceAlpha" type="matrix" values="0 0 0 0 0 0 0 0 0 0 0 0 0 0 0 0 0 0 127 0" result="hardAlpha"/>
<feOffset dy="4"/>
<feGaussianBlur stdDeviation="2"/>
<feComposite in2="hardAlpha" operator="out"/>
<feColorMatrix type="matrix" values="0 0 0 0 0 0 0 0 0 0 0 0 0 0 0 0 0 0 0.25 0"/>
<feBlend mode="normal" in2="BackgroundImageFix" result="effect1_dropShadow_10_45"/>
<feBlend mode="normal" in="SourceGraphic" in2="effect1_dropShadow_10_45" result="shape"/>
</filter>
<filter id="filter3_d_10_45" x="320" y="44" width="60.3757" height="87" filterUnits="userSpaceOnUse" color-interpolation-filters="sRGB">
<feFlood flood-opacity="0" result="BackgroundImageFix"/>
<feColorMatrix in="SourceAlpha" type="matrix" values="0 0 0 0 0 0 0 0 0 0 0 0 0 0 0 0 0 0 127 0" result="hardAlpha"/>
<feOffset dy="4"/>
<feGaussianBlur stdDeviation="2"/>
<feComposite in2="hardAlpha" operator="out"/>
<feColorMatrix type="matrix" values="0 0 0 0 0 0 0 0 0 0 0 0 0 0 0 0 0 0 0.25 0"/>
<feBlend mode="normal" in2="BackgroundImageFix" result="effect1_dropShadow_10_45"/>
<feBlend mode="normal" in="SourceGraphic" in2="effect1_dropShadow_10_45" result="shape"/>
</filter>
<filter id="filter4_d_10_45" x="320" y="244" width="60.3757" height="87" filterUnits="userSpaceOnUse" color-interpolation-filters="sRGB">
<feFlood flood-opacity="0" result="BackgroundImageFix"/>
<feColorMatrix in="SourceAlpha" type="matrix" values="0 0 0 0 0 0 0 0 0 0 0 0 0 0 0 0 0 0 127 0" result="hardAlpha"/>
<feOffset dy="4"/>
<feGaussianBlur stdDeviation="2"/>
<feComposite in2="hardAlpha" operator="out"/>
<feColorMatrix type="matrix" values="0 0 0 0 0 0 0 0 0 0 0 0 0 0 0 0 0 0 0.25 0"/>
<feBlend mode="normal" in2="BackgroundImageFix" result="effect1_dropShadow_10_45"/>
<feBlend mode="normal" in="SourceGraphic" in2="effect1_dropShadow_10_45" result="shape"/>
</filter>
<filter id="filter5_d_10_45" x="182" y="220" width="136" height="136" filterUnits="userSpaceOnUse" color-interpolation-filters="sRGB">
<feFlood flood-opacity="0" result="BackgroundImageFix"/>
<feColorMatrix in="SourceAlpha" type="matrix" values="0 0 0 0 0 0 0 0 0 0 0 0 0 0 0 0 0 0 127 0" result="hardAlpha"/>
<feOffset dy="4"/>
<feGaussianBlur stdDeviation="2"/>
<feComposite in2="hardAlpha" operator="out"/>
<feColorMatrix type="matrix" values="0 0 0 0 0 0 0 0 0 0 0 0 0 0 0 0 0 0 0.25 0"/>
<feBlend mode="normal" in2="BackgroundImageFix" result="effect1_dropShadow_10_45"/>
<feBlend mode="normal" in="SourceGraphic" in2="effect1_dropShadow_10_45" result="shape"/>
</filter>
<filter id="filter6_d_10_45" x="82" y="20" width="136" height="136" filterUnits="userSpaceOnUse" color-interpolation-filters="sRGB">
<feFlood flood-opacity="0" result="BackgroundImageFix"/>
<feColorMatrix in="SourceAlpha" type="matrix" values="0 0 0 0 0 0 0 0 0 0 0 0 0 0 0 0 0 0 127 0" result="hardAlpha"/>
<feOffset dy="4"/>
<feGaussianBlur stdDeviation="2"/>
<feComposite in2="hardAlpha" operator="out"/>
<feColorMatrix type="matrix" values="0 0 0 0 0 0 0 0 0 0 0 0 0 0 0 0 0 0 0.25 0"/>
<feBlend mode="normal" in2="BackgroundImageFix" result="effect1_dropShadow_10_45"/>
<feBlend mode="normal" in="SourceGraphic" in2="effect1_dropShadow_10_45" result="shape"/>
</filter>
<filter id="filter7_d_10_45" x="211" y="176" width="78" height="166" filterUnits="userSpaceOnUse" color-interpolation-filters="sRGB">
<feFlood flood-opacity="0" result="BackgroundImageFix"/>
<feColorMatrix in="SourceAlpha" type="matrix" values="0 0 0 0 0 0 0 0 0 0 0 0 0 0 0 0 0 0 127 0" result="hardAlpha"/>
<feOffset dy="4"/>
<feGaussianBlur stdDeviation="2"/>
<feComposite in2="hardAlpha" operator="out"/>
<feColorMatrix type="matrix" values="0 0 0 0 0 0 0 0 0 0 0 0 0 0 0 0 0 0 0.25 0"/>
<feBlend mode="normal" in2="BackgroundImageFix" result="effect1_dropShadow_10_45"/>
<feBlend mode="normal" in="SourceGraphic" in2="effect1_dropShadow_10_45" result="shape"/>
</filter>
<filter id="filter8_d_10_45" x="102" y="0" width="96.5958" height="142" filterUnits="userSpaceOnUse" color-interpolation-filters="sRGB">
<feFlood flood-opacity="0" result="BackgroundImageFix"/>
<feColorMatrix in="SourceAlpha" type="matrix" values="0 0 0 0 0 0 0 0 0 0 0 0 0 0 0 0 0 0 127 0" result="hardAlpha"/>
<feOffset dy="4"/>
<feGaussianBlur stdDeviation="2"/>
<feComposite in2="hardAlpha" operator="out"/>
<feColorMatrix type="matrix" values="0 0 0 0 0 0 0 0 0 0 0 0 0 0 0 0 0 0 0.4 0"/>
<feBlend mode="normal" in2="BackgroundImageFix" result="effect1_dropShadow_10_45"/>
<feBlend mode="normal" in="SourceGraphic" in2="effect1_dropShadow_10_45" result="shape"/>
</filter>
</defs>
</svg>
