<svg width="295" height="229" viewBox="0 0 295 229" fill="none" xmlns="http://www.w3.org/2000/svg">
<g filter="url(#filter0_d_16_57)">
<path d="M250.548 81.7764C246.945 89.4316 236.055 89.4316 232.452 81.7764L215.735 46.2585C212.613 39.626 217.453 32 224.783 32H258.217C265.547 32 270.387 39.626 267.265 46.2585L250.548 81.7764Z" fill="#AFE47A"/>
<path d="M235 5C235 2.23858 237.239 0 240 0H243C245.761 0 248 2.23858 248 5V38C248 40.7614 245.761 43 243 43H240C237.239 43 235 40.7614 235 38V5Z" fill="#AFE47A"/>
<path d="M254 11C256.761 11 259 13.2386 259 16V19C259 21.7614 256.761 24 254 24H230C227.239 24 225 21.7614 225 19V16C225 13.2386 227.239 11 230 11H254Z" fill="#AFE47A"/>
<path d="M242.324 78.2331L220.33 85.8174C218.452 86.465 218.577 89.1285 220.516 89.5608C236.598 93.1465 247.797 93.3758 263.979 89.5453C265.87 89.0977 265.994 86.5165 264.172 85.8416L243.671 78.2484C243.237 78.0878 242.761 78.0824 242.324 78.2331Z" fill="#AFE47A"/>
<path d="M240.742 112.981L217.102 93.8461C215.823 92.8101 216.276 90.7614 217.878 90.3815C236.168 86.0443 247.914 85.7189 266.23 90.34C267.809 90.7384 268.238 92.7614 266.972 93.7861L243.258 112.981C242.525 113.575 241.475 113.575 240.742 112.981Z" fill="#AFE47A"/>
<path d="M243.488 78.25V186.778L272.488 193.25H214.488L228.612 163.422C229.407 161.742 229.964 159.961 230.268 158.128L243.488 78.25Z" fill="#AFE47A"/>
<path d="M243.488 78.25V186.778L214.488 193.25H272.488L258.364 163.422C257.569 161.742 257.011 159.961 256.708 158.128L243.488 78.25Z" fill="#AFE47A"/>
<path d="M204 198C204 195.239 206.239 193 209 193H274C276.761 193 279 195.239 279 198V210C279 212.761 276.761 215 274 215H209C206.239 215 204 212.761 204 210V198Z" fill="#AFE47A"/>
<path d="M193 215C193 211.686 195.686 209 199 209H285C288.314 209 291 211.686 291 215C291 218.314 288.314 221 285 221H199C195.686 221 193 218.314 193 215Z" fill="#AFE47A"/>
<path d="M153.829 143.017C153.829 140.33 155.991 138.151 158.658 138.151H209.364C212.032 138.151 214.194 140.33 214.194 143.017C214.194 145.705 212.032 147.884 209.364 147.884H158.658C155.991 147.884 153.829 145.705 153.829 143.017Z" fill="#AFE47A"/>
<path d="M185.42 122.153C187.789 119.334 192.082 119.274 194.527 122.025L203.758 132.41C204.275 132.991 204.846 133.521 205.464 133.993L215.664 141.773C218.429 143.882 218.87 147.899 216.628 150.566C214.401 153.215 210.431 153.456 207.906 151.096L185.922 130.549C183.553 128.336 183.332 124.637 185.42 122.153Z" fill="#AFE47A"/>
<path d="M182.804 150.317C182.804 143.598 188.209 138.151 194.877 138.151H206.924C214.472 138.151 220.169 145.053 218.795 152.533L217.23 161.049C216.17 166.816 211.178 171 205.359 171H194.877C188.209 171 182.804 165.553 182.804 158.834V150.317Z" fill="#AFE47A"/>
<path d="M156.244 160.05C156.244 157.363 158.406 155.184 161.073 155.184H209.364C212.032 155.184 214.194 157.363 214.194 160.05C214.194 162.738 212.032 164.917 209.364 164.917H161.073C158.406 164.917 156.244 162.738 156.244 160.05Z" fill="#AFE47A"/>
<path d="M165.902 166.742C165.902 164.39 167.794 162.484 170.128 162.484H201.517C203.851 162.484 205.743 164.39 205.743 166.742C205.743 169.094 203.851 171 201.517 171H170.128C167.794 171 165.902 169.094 165.902 166.742Z" fill="#AFE47A"/>
<path d="M149 152.75C149 150.063 151.162 147.884 153.829 147.884H209.364C212.032 147.884 214.194 150.063 214.194 152.75C214.194 155.438 212.032 157.617 209.364 157.617H153.829C151.162 157.617 149 155.438 149 152.75Z" fill="#AFE47A"/>
<path d="M17 91C14.2386 91 12 93.2386 12 96V113C12 115.419 13.7178 117.437 16 117.9V121C16 123.761 18.2386 126 21 126H24.5C26 137 28.1 162.8 24.5 178C22.9797 184.419 19.9198 193.145 16.4649 202H71.0351C67.5802 193.145 64.5203 184.419 63 178C59.4 162.8 61.5 137 63 126H67C69.7614 126 72 123.761 72 121V117.584C73.7659 116.812 75 115.05 75 113V96C75 93.2386 72.7614 91 70 91H68C65.2386 91 63 93.2386 63 96V102H50V96C50 93.2386 47.7614 91 45 91H43C40.2386 91 38 93.2386 38 96V102H24V96C24 93.2386 21.7614 91 19 91H17Z" fill="#5AB1BB"/>
<path d="M10 204C10 201.239 12.2386 199 15 199H72C74.7614 199 77 201.239 77 204V216C77 218.761 74.7614 221 72 221H15C12.2386 221 10 218.761 10 216V204Z" fill="#5AB1BB"/>
<path d="M23 131C23 129.895 23.8954 129 25 129H63C64.1046 129 65 129.895 65 131C65 132.105 64.1046 133 63 133H25C23.8954 133 23 132.105 23 131Z" fill="#5AB1BB"/>
<path d="M4 212C4 209.239 6.23858 207 9 207H79C81.7614 207 84 209.239 84 212V216C84 218.761 81.7614 221 79 221H9C6.23858 221 4 218.761 4 216V212Z" fill="#5AB1BB"/>
<path d="M78.1729 144.017C78.1729 141.408 80.2875 139.294 82.8961 139.294H131.702C134.311 139.294 136.426 141.408 136.426 144.017C136.426 146.625 134.311 148.74 131.702 148.74H82.8961C80.2875 148.74 78.1729 146.625 78.1729 144.017Z" fill="#5AB1BB"/>
<path d="M78.1729 151.889C78.1729 149.28 80.2875 147.166 82.8961 147.166H93.1297L133.973 152.898C136.282 153.222 138 155.198 138 157.53C138 160.372 135.487 162.557 132.673 162.162L93.1297 156.612H82.8961C80.2875 156.612 78.1729 154.497 78.1729 151.889Z" fill="#5AB1BB"/>
<path d="M78.1729 159.761C78.1729 157.152 80.2875 155.038 82.8961 155.038H98.6401C101.249 155.038 103.363 157.152 103.363 159.761C103.363 162.369 101.249 164.484 98.6401 164.484H82.8961C80.2875 164.484 78.1729 162.369 78.1729 159.761Z" fill="#5AB1BB"/>
<path d="M78.1729 165.419C78.1729 162.754 80.3775 160.617 83.0412 160.7L98.7898 161.192C101.338 161.272 103.363 163.361 103.363 165.911C103.363 168.576 101.159 170.713 98.4949 170.629L82.7463 170.137C80.1977 170.058 78.1729 167.969 78.1729 165.419Z" fill="#5AB1BB"/>
<path d="M69.5137 144.337C69.5137 142.235 70.7734 140.338 72.7106 139.522L81.0981 135.99C83.3011 135.063 85.7221 134.779 88.0799 135.172L94.0538 136.168C96.7003 136.609 98.6401 138.898 98.6401 141.582C98.6401 144.329 96.6089 146.653 93.8865 147.021L75.4375 149.514C72.3028 149.937 69.5137 147.5 69.5137 144.337Z" fill="#5AB1BB"/>
<path d="M68.0419 147.969C67.5659 143.328 71.2076 139.294 75.8728 139.294H82.8961C87.2437 139.294 90.7681 142.818 90.7681 147.166V162.601C90.7681 167.067 87.0565 170.639 82.5936 170.467L77.1318 170.257C73.2135 170.106 70.0035 167.095 69.6035 163.194L68.0419 147.969Z" fill="#5AB1BB"/>
</g>
<defs>
<filter id="filter0_d_16_57" x="0" y="0" width="295" height="229" filterUnits="userSpaceOnUse" color-interpolation-filters="sRGB">
<feFlood flood-opacity="0" result="BackgroundImageFix"/>
<feColorMatrix in="SourceAlpha" type="matrix" values="0 0 0 0 0 0 0 0 0 0 0 0 0 0 0 0 0 0 127 0" result="hardAlpha"/>
<feOffset dy="4"/>
<feGaussianBlur stdDeviation="2"/>
<feComposite in2="hardAlpha" operator="out"/>
<feColorMatrix type="matrix" values="0 0 0 0 0 0 0 0 0 0 0 0 0 0 0 0 0 0 0.25 0"/>
<feBlend mode="normal" in2="BackgroundImageFix" result="effect1_dropShadow_16_57"/>
<feBlend mode="normal" in="SourceGraphic" in2="effect1_dropShadow_16_57" result="shape"/>
</filter>
</defs>
</svg>
