<svg width="35" height="35" viewBox="0 0 35 35" fill="none" xmlns="http://www.w3.org/2000/svg">
<path d="M10.2667 22.1667C12.844 22.1667 14.9333 20.0773 14.9333 17.5C14.9333 14.9227 12.844 12.8333 10.2667 12.8333C7.68934 12.8333 5.6 14.9227 5.6 17.5C5.6 20.0773 7.68934 22.1667 10.2667 22.1667Z" fill="#5AB1BB"/>
<path d="M24.9045 21.4718C24.7247 21.7827 24.2757 21.7824 24.0962 21.4711L19.8563 14.1176C19.6769 13.8064 19.9016 13.4177 20.2608 13.418L28.7479 13.4249C29.1071 13.4252 29.3315 13.8143 29.1517 14.1252L24.9045 21.4718Z" fill="#5AB1BB"/>
<path fill-rule="evenodd" clip-rule="evenodd" d="M35 7C35 3.13401 31.866 0 28 0H7C3.13401 0 0 3.13401 0 7V28C0 31.866 3.13401 35 7 35H28C31.866 35 35 31.866 35 28V7ZM2.33333 16.3333C2.33333 12.4673 5.46734 9.33333 9.33333 9.33333H25.6667C29.5327 9.33333 32.6667 12.4673 32.6667 16.3333V18.6667C32.6667 22.5327 29.5327 25.6667 25.6667 25.6667H9.33333C5.46734 25.6667 2.33333 22.5327 2.33333 18.6667V16.3333Z" fill="#5AB1BB"/>
</svg>
