<svg width="308" height="307" viewBox="0 0 308 307" fill="none" xmlns="http://www.w3.org/2000/svg">
<path fill-rule="evenodd" clip-rule="evenodd" d="M181.602 27.3405C186.139 22.9781 186.174 15.9296 181.681 11.5971C177.188 7.26457 169.868 7.28881 165.331 11.6512L154.61 21.9598L143.717 11.4559C139.224 7.12342 131.904 7.14766 127.367 11.51C122.83 15.8724 122.795 22.921 127.288 27.2535L138.182 37.7574L127.461 48.066C122.924 52.4284 122.889 59.477 127.382 63.8095C131.875 68.142 139.195 68.1177 143.732 63.7553L154.453 53.4467L164.795 63.4188C169.288 67.7513 176.608 67.727 181.145 63.3647C185.681 59.0023 185.717 51.9537 181.223 47.6212L170.882 37.6491L181.602 27.3405ZM177.359 25.0434C180.113 22.3952 180.134 18.1163 177.406 15.4862C174.679 12.8561 170.235 12.8709 167.481 15.5191L154.465 28.0349L141.574 15.6048C138.847 12.9748 134.403 12.9895 131.649 15.6377C128.895 18.2859 128.873 22.5648 131.601 25.1949L144.492 37.6249L131.476 50.1407C128.722 52.789 128.7 57.0679 131.428 59.6979C134.156 62.328 138.599 62.3133 141.353 59.6651L154.368 47.1501L154.374 47.1536L167.26 59.5793C169.988 62.2094 174.432 62.1946 177.186 59.5464C179.94 56.8982 179.961 52.6193 177.234 49.9893L164.344 37.5608L177.359 25.0434Z" fill="#AFE47A"/>
<g filter="url(#filter0_f_22_94)">
<path fill-rule="evenodd" clip-rule="evenodd" d="M181.602 27.3405C186.139 22.9781 186.174 15.9296 181.681 11.5971C177.188 7.26457 169.868 7.28881 165.331 11.6512L154.61 21.9598L143.717 11.4559C139.224 7.12342 131.904 7.14766 127.367 11.51C122.83 15.8724 122.795 22.921 127.288 27.2535L138.182 37.7574L127.461 48.066C122.924 52.4284 122.889 59.477 127.382 63.8095C131.875 68.142 139.195 68.1177 143.732 63.7553L154.453 53.4467L164.795 63.4188C169.288 67.7513 176.608 67.727 181.145 63.3647C185.681 59.0023 185.717 51.9537 181.223 47.6212L170.882 37.6491L181.602 27.3405ZM177.359 25.0434C180.113 22.3952 180.134 18.1163 177.406 15.4862C174.679 12.8561 170.235 12.8709 167.481 15.5191L154.465 28.0349L141.574 15.6048C138.847 12.9748 134.403 12.9895 131.649 15.6377C128.895 18.2859 128.873 22.5648 131.601 25.1949L144.492 37.6249L131.476 50.1407C128.722 52.789 128.7 57.0679 131.428 59.6979C134.156 62.328 138.599 62.3133 141.353 59.6651L154.368 47.1501L154.374 47.1536L167.26 59.5793C169.988 62.2094 174.432 62.1946 177.186 59.5464C179.94 56.8982 179.961 52.6193 177.234 49.9893L164.344 37.5608L177.359 25.0434Z" fill="#AFE47A"/>
</g>
<path fill-rule="evenodd" clip-rule="evenodd" d="M295.602 258.341C300.139 253.978 300.174 246.93 295.681 242.597C291.188 238.265 283.868 238.289 279.331 242.651L268.61 252.96L257.717 242.456C253.224 238.123 245.904 238.148 241.367 242.51C236.83 246.872 236.795 253.921 241.288 258.254L252.182 268.757L241.461 279.066C236.924 283.428 236.889 290.477 241.382 294.809C245.875 299.142 253.195 299.118 257.732 294.755L268.453 284.447L278.795 294.419C283.288 298.751 290.608 298.727 295.145 294.365C299.681 290.002 299.717 282.954 295.223 278.621L284.882 268.649L295.602 258.341ZM291.359 256.043C294.113 253.395 294.134 249.116 291.406 246.486C288.679 243.856 284.235 243.871 281.481 246.519L268.465 259.035L255.574 246.605C252.847 243.975 248.403 243.989 245.649 246.638C242.895 249.286 242.873 253.565 245.601 256.195L258.492 268.625L245.476 281.141C242.722 283.789 242.7 288.068 245.428 290.698C248.156 293.328 252.599 293.313 255.353 290.665L268.368 278.15L268.374 278.154L281.26 290.579C283.988 293.209 288.432 293.195 291.186 290.546C293.94 287.898 293.961 283.619 291.234 280.989L278.344 268.561L291.359 256.043Z" fill="#AFE47A"/>
<g filter="url(#filter1_f_22_94)">
<path fill-rule="evenodd" clip-rule="evenodd" d="M295.602 258.341C300.139 253.978 300.174 246.93 295.681 242.597C291.188 238.265 283.868 238.289 279.331 242.651L268.61 252.96L257.717 242.456C253.224 238.123 245.904 238.148 241.367 242.51C236.83 246.872 236.795 253.921 241.288 258.254L252.182 268.757L241.461 279.066C236.924 283.428 236.889 290.477 241.382 294.809C245.875 299.142 253.195 299.118 257.732 294.755L268.453 284.447L278.795 294.419C283.288 298.751 290.608 298.727 295.145 294.365C299.681 290.002 299.717 282.954 295.223 278.621L284.882 268.649L295.602 258.341ZM291.359 256.043C294.113 253.395 294.134 249.116 291.406 246.486C288.679 243.856 284.235 243.871 281.481 246.519L268.465 259.035L255.574 246.605C252.847 243.975 248.403 243.989 245.649 246.638C242.895 249.286 242.873 253.565 245.601 256.195L258.492 268.625L245.476 281.141C242.722 283.789 242.7 288.068 245.428 290.698C248.156 293.328 252.599 293.313 255.353 290.665L268.368 278.15L268.374 278.154L281.26 290.579C283.988 293.209 288.432 293.195 291.186 290.546C293.94 287.898 293.961 283.619 291.234 280.989L278.344 268.561L291.359 256.043Z" fill="#AFE47A"/>
</g>
<path fill-rule="evenodd" clip-rule="evenodd" d="M66.6021 143.341C71.1388 138.978 71.1741 131.93 66.681 127.597C62.1878 123.265 54.8677 123.289 50.331 127.651L39.6104 137.96L28.717 127.456C24.2239 123.123 16.9037 123.148 12.367 127.51C7.83032 131.872 7.79501 138.921 12.2882 143.254L23.1815 153.757L12.461 164.066C7.9243 168.428 7.88899 175.477 12.3821 179.809C16.8753 184.142 24.1954 184.118 28.7321 179.755L39.4527 169.447L49.7945 179.419C54.2877 183.751 61.6078 183.727 66.1445 179.365C70.6812 175.002 70.7165 167.954 66.2234 163.621L55.8816 153.649L66.6021 143.341ZM62.3586 141.043C65.1126 138.395 65.1341 134.116 62.4065 131.486C59.6789 128.856 55.2351 128.871 52.4811 131.519L39.4651 144.035L26.5742 131.605C23.8466 128.975 19.4028 128.989 16.6488 131.638C13.8947 134.286 13.8733 138.565 16.6009 141.195L29.4919 153.625L16.4759 166.141C13.7219 168.789 13.7004 173.068 16.428 175.698C19.1556 178.328 23.5994 178.313 26.3534 175.665L39.3684 163.15L39.3739 163.154L52.2603 175.579C54.9879 178.209 59.4317 178.195 62.1857 175.546C64.9398 172.898 64.9612 168.619 62.2336 165.989L49.3443 153.561L62.3586 141.043Z" fill="#AFE47A"/>
<g filter="url(#filter2_f_22_94)">
<path fill-rule="evenodd" clip-rule="evenodd" d="M66.6021 143.341C71.1388 138.978 71.1741 131.93 66.681 127.597C62.1878 123.265 54.8677 123.289 50.331 127.651L39.6104 137.96L28.717 127.456C24.2239 123.123 16.9037 123.148 12.367 127.51C7.83032 131.872 7.79501 138.921 12.2882 143.254L23.1815 153.757L12.461 164.066C7.9243 168.428 7.88899 175.477 12.3821 179.809C16.8753 184.142 24.1954 184.118 28.7321 179.755L39.4527 169.447L49.7945 179.419C54.2877 183.751 61.6078 183.727 66.1445 179.365C70.6812 175.002 70.7165 167.954 66.2234 163.621L55.8816 153.649L66.6021 143.341ZM62.3586 141.043C65.1126 138.395 65.1341 134.116 62.4065 131.486C59.6789 128.856 55.2351 128.871 52.4811 131.519L39.4651 144.035L26.5742 131.605C23.8466 128.975 19.4028 128.989 16.6488 131.638C13.8947 134.286 13.8733 138.565 16.6009 141.195L29.4919 153.625L16.4759 166.141C13.7219 168.789 13.7004 173.068 16.428 175.698C19.1556 178.328 23.5994 178.313 26.3534 175.665L39.3684 163.15L39.3739 163.154L52.2603 175.579C54.9879 178.209 59.4317 178.195 62.1857 175.546C64.9398 172.898 64.9612 168.619 62.2336 165.989L49.3443 153.561L62.3586 141.043Z" fill="#AFE47A"/>
</g>
<path fill-rule="evenodd" clip-rule="evenodd" d="M209 8C209 5.23857 206.761 3 204 3C201.239 3 199 5.23857 199 8V83H109V8C109 5.23857 106.761 3 104 3C101.239 3 99 5.23857 99 8V83H94V8C94 5.23857 91.7614 3 89 3C86.2386 3 84 5.23857 84 8V83H9C6.23857 83 4 85.2386 4 88C4 90.7614 6.23857 93 9 93H84V98H9C6.23857 98 4 100.239 4 103C4 105.761 6.23857 108 9 108H84V198H9C6.23857 198 4 200.239 4 203C4 205.761 6.23857 208 9 208H84V212H9C6.23857 212 4 214.239 4 217C4 219.761 6.23857 222 9 222H84V298C84 300.761 86.2386 303 89 303C91.7614 303 94 300.761 94 298V222H99V298C99 300.761 101.239 303 104 303C106.761 303 109 300.761 109 298V222H199V298C199 300.761 201.239 303 204 303C206.761 303 209 300.761 209 298V222H215V298C215 300.761 217.239 303 220 303C222.761 303 225 300.761 225 298V222H299C301.761 222 304 219.761 304 217C304 214.239 301.761 212 299 212H225V208H299C301.761 208 304 205.761 304 203C304 200.239 301.761 198 299 198H225V108H299C301.761 108 304 105.761 304 103C304 100.239 301.761 98 299 98H225V93H299C301.761 93 304 90.7614 304 88C304 85.2386 301.761 83 299 83H225V8C225 5.23857 222.761 3 220 3C217.239 3 215 5.23857 215 8V83H209V8ZM94 212H99V208H94V212ZM94 198H99V108H94V198ZM94 98H99V93H94V98ZM199 212H109V208H199V212ZM215 212H209V208H215V212ZM215 93H209V98H215V93ZM215 108H209V198H215V108ZM109 93H199V98H109V93ZM109 198H199V108H109V198Z" fill="#D9D9D9"/>
<circle cx="154" cy="266" r="28.5" stroke="#5AB1BB" stroke-width="7"/>
<g filter="url(#filter3_f_22_94)">
<circle cx="154" cy="266" r="28.5" stroke="#5AB1BB" stroke-width="7"/>
</g>
<circle cx="154" cy="153" r="28.5" stroke="#5AB1BB" stroke-width="7"/>
<g filter="url(#filter4_f_22_94)">
<circle cx="154" cy="153" r="28.5" stroke="#5AB1BB" stroke-width="7"/>
</g>
<circle cx="43" cy="40" r="28.5" stroke="#5AB1BB" stroke-width="7"/>
<g filter="url(#filter5_f_22_94)">
<circle cx="43" cy="40" r="28.5" stroke="#5AB1BB" stroke-width="7"/>
</g>
<defs>
<filter id="filter0_f_22_94" x="115.941" y="0.222351" width="77.0866" height="74.8207" filterUnits="userSpaceOnUse" color-interpolation-filters="sRGB">
<feFlood flood-opacity="0" result="BackgroundImageFix"/>
<feBlend mode="normal" in="SourceGraphic" in2="BackgroundImageFix" result="shape"/>
<feGaussianBlur stdDeviation="4" result="effect1_foregroundBlur_22_94"/>
</filter>
<filter id="filter1_f_22_94" x="229.941" y="231.222" width="77.0866" height="74.8207" filterUnits="userSpaceOnUse" color-interpolation-filters="sRGB">
<feFlood flood-opacity="0" result="BackgroundImageFix"/>
<feBlend mode="normal" in="SourceGraphic" in2="BackgroundImageFix" result="shape"/>
<feGaussianBlur stdDeviation="4" result="effect1_foregroundBlur_22_94"/>
</filter>
<filter id="filter2_f_22_94" x="0.941269" y="116.222" width="77.0866" height="74.8207" filterUnits="userSpaceOnUse" color-interpolation-filters="sRGB">
<feFlood flood-opacity="0" result="BackgroundImageFix"/>
<feBlend mode="normal" in="SourceGraphic" in2="BackgroundImageFix" result="shape"/>
<feGaussianBlur stdDeviation="4" result="effect1_foregroundBlur_22_94"/>
</filter>
<filter id="filter3_f_22_94" x="114" y="226" width="80" height="80" filterUnits="userSpaceOnUse" color-interpolation-filters="sRGB">
<feFlood flood-opacity="0" result="BackgroundImageFix"/>
<feBlend mode="normal" in="SourceGraphic" in2="BackgroundImageFix" result="shape"/>
<feGaussianBlur stdDeviation="4" result="effect1_foregroundBlur_22_94"/>
</filter>
<filter id="filter4_f_22_94" x="114" y="113" width="80" height="80" filterUnits="userSpaceOnUse" color-interpolation-filters="sRGB">
<feFlood flood-opacity="0" result="BackgroundImageFix"/>
<feBlend mode="normal" in="SourceGraphic" in2="BackgroundImageFix" result="shape"/>
<feGaussianBlur stdDeviation="4" result="effect1_foregroundBlur_22_94"/>
</filter>
<filter id="filter5_f_22_94" x="3" y="0" width="80" height="80" filterUnits="userSpaceOnUse" color-interpolation-filters="sRGB">
<feFlood flood-opacity="0" result="BackgroundImageFix"/>
<feBlend mode="normal" in="SourceGraphic" in2="BackgroundImageFix" result="shape"/>
<feGaussianBlur stdDeviation="4" result="effect1_foregroundBlur_22_94"/>
</filter>
</defs>
</svg>
